<?xml version="1.0" encoding="UTF-8" standalone="no"?>
<!-- Generator: Adobe Illustrator 21.1.0, SVG Export Plug-In . SVG Version: 6.00 Build 0)  -->

<svg
   xmlns:dc="http://purl.org/dc/elements/1.1/"
   xmlns:cc="http://creativecommons.org/ns#"
   xmlns:rdf="http://www.w3.org/1999/02/22-rdf-syntax-ns#"
   xmlns:svg="http://www.w3.org/2000/svg"
   xmlns="http://www.w3.org/2000/svg"
   xmlns:sodipodi="http://sodipodi.sourceforge.net/DTD/sodipodi-0.dtd"
   xmlns:inkscape="http://www.inkscape.org/namespaces/inkscape"
   version="1.1"
   id="Layer_1"
   x="0px"
   y="0px"
   viewBox="0 0 37.799999 38"
   xml:space="preserve"
   sodipodi:docname="ID-Icon-01_kd.svg"
   width="37.799999"
   height="38"
   inkscape:version="0.92.3 (unknown)"><metadata
   id="metadata3808"><rdf:RDF><cc:Work
       rdf:about=""><dc:format>image/svg+xml</dc:format><dc:type
         rdf:resource="http://purl.org/dc/dcmitype/StillImage" /><dc:title></dc:title></cc:Work></rdf:RDF></metadata><defs
   id="defs3806" /><sodipodi:namedview
   pagecolor="#ffffff"
   bordercolor="#666666"
   borderopacity="0"
   objecttolerance="10"
   gridtolerance="10"
   guidetolerance="10"
   inkscape:pageopacity="0"
   inkscape:pageshadow="2"
   inkscape:window-width="1920"
   inkscape:window-height="1017"
   id="namedview3804"
   showgrid="false"
   fit-margin-top="0"
   fit-margin-left="0"
   fit-margin-right="0"
   fit-margin-bottom="0"
   inkscape:pagecheckerboard="true"
   inkscape:zoom="5.8263889"
   inkscape:cx="18.9"
   inkscape:cy="19"
   inkscape:window-x="1920"
   inkscape:window-y="23"
   inkscape:window-maximized="0"
   inkscape:current-layer="Layer_1" />
<style
   type="text/css"
   id="style3795">
	.st0{fill:#FFFFFF;}
</style>
<g
   id="g3801"
   transform="translate(-53.1,-53)">
	<path
   class="st0"
   d="M 79.2,68.6 C 78.3,67.7 77,67.2 75.6,67.2 h -4.1 c -0.2,0 -0.3,0.1 -0.3,0.3 v 8.8 c 0,0.2 0.1,0.3 0.3,0.3 h 4.1 c 2.8,0 5,-2.1 5,-4.7 0,-1.2 -0.5,-2.3 -1.4,-3.3"
   id="path3797"
   inkscape:connector-curvature="0"
   style="fill:#ffffff" />
	<path
   class="st0"
   d="m 80.3,76.5 c -1.2,1.1 -2.9,1.8 -4.7,1.8 h -4.3 c -1,0 -1.8,-0.8 -1.8,-1.8 v -9.3 c 0,-0.9 0.8,-1.8 1.8,-1.8 h 4.2 c 1.8,0 3.5,0.6 4.8,1.9 1.2,1.2 2,2.8 2,4.6 0,1.8 -0.7,3.5 -2,4.6 m -15,1.8 h -0.5 c -0.6,0 -1.1,-0.5 -1.1,-1.1 V 65.6 h 0.5 c 0.6,0 1.1,0.5 1.1,1.1 z M 72,53 C 61.5,53 53.1,61.5 53.1,71.9 53.1,82.5 61.6,91 72,91 82.5,91 90.9,82.5 90.9,71.9 90.9,61.4 82.5,53 72,53"
   id="path3799"
   inkscape:connector-curvature="0"
   style="fill:#ffffff" />
</g>
</svg>