<?xml version="1.0" encoding="UTF-8" standalone="no"?>
<!-- Generator: Adobe Illustrator 22.0.1, SVG Export Plug-In . SVG Version: 6.00 Build 0)  -->

<svg
   xmlns:dc="http://purl.org/dc/elements/1.1/"
   xmlns:cc="http://creativecommons.org/ns#"
   xmlns:rdf="http://www.w3.org/1999/02/22-rdf-syntax-ns#"
   xmlns:svg="http://www.w3.org/2000/svg"
   xmlns="http://www.w3.org/2000/svg"
   xmlns:sodipodi="http://sodipodi.sourceforge.net/DTD/sodipodi-0.dtd"
   xmlns:inkscape="http://www.inkscape.org/namespaces/inkscape"
   version="1.1"
   id="Layer_1"
   x="0px"
   y="0px"
   viewBox="0 0 200.2 216"
   xml:space="preserve"
   sodipodi:docname="360-camera-1.svg"
   width="200.2"
   height="216"
   inkscape:version="0.92.3 (unknown)"><metadata
   id="metadata880"><rdf:RDF><cc:Work
       rdf:about=""><dc:format>image/svg+xml</dc:format><dc:type
         rdf:resource="http://purl.org/dc/dcmitype/StillImage" /><dc:title></dc:title></cc:Work></rdf:RDF></metadata><defs
   id="defs878" /><sodipodi:namedview
   pagecolor="#ffffff"
   bordercolor="#666666"
   borderopacity="1"
   objecttolerance="10"
   gridtolerance="10"
   guidetolerance="10"
   inkscape:pageopacity="0"
   inkscape:pageshadow="2"
   inkscape:window-width="1846"
   inkscape:window-height="1057"
   id="namedview876"
   showgrid="false"
   inkscape:pagecheckerboard="true"
   inkscape:zoom="1.5451593"
   inkscape:cx="151.83785"
   inkscape:cy="124.62045"
   inkscape:window-x="74"
   inkscape:window-y="23"
   inkscape:window-maximized="0"
   inkscape:current-layer="layer1" />
<style
   type="text/css"
   id="style863">
	.st0{fill:#00A64F;}
</style>
<g
   inkscape:groupmode="layer"
   id="layer1"
   inkscape:label="backdrop"><rect
     style="fill:#ffffff;fill-opacity:1;stroke-width:2.66154885"
     id="rect883"
     width="200"
     height="216"
     x="0"
     y="0" /></g><g
   id="g869"
   transform="translate(-7.9)">
	
		<circle
   transform="matrix(0.9871,-0.1602,0.1602,0.9871,-18.1163,18.8079)"
   class="st0"
   cx="107.6"
   cy="121.8"
   id="ellipse865"
   r="13.8"
   style="fill:#00a64f" />
	<path
   class="st0"
   d="M 153.9,86.6 H 89.2 v -4.3 c 0,-2.2 -1.8,-4 -4,-4 H 63.6 c -2.2,0 -4,1.8 -4,4 v 4.6 c -4.9,1.1 -8.5,5.5 -8.5,10.7 v 48.9 c 0,6.1 5,11 11,11 h 91.8 c 6.1,0 11,-5 11,-11 V 97.6 c 0,-6 -4.9,-11 -11,-11 z m -20.4,35.5 c 0,14 -11.5,25.5 -25.5,25.5 -14,0 -25.5,-11.5 -25.5,-25.5 v 0 c 0,-14 11.5,-25.5 25.5,-25.5 14,0 25.5,11.4 25.5,25.5 z"
   id="path867"
   inkscape:connector-curvature="0"
   style="fill:#00a64f" />
</g>
<path
   class="st0"
   d="m 169.9,44.2 -5.3,5.5 c 18,17.6 28,41.1 28,66.3 0,51 -41.5,92.5 -92.5,92.5 C 49.1,208.5 7.6,167 7.6,116 7.6,65 49.1,23.5 100.1,23.5 h 21.3 l -17.6,9 3.5,6.8 23.4,-11.9 15.1,-7.7 -38.5,-19.7 -3.5,6.8 17.6,9 H 100.1 C 44.9,15.8 0,60.7 0,115.9 0,171.1 44.9,216 100.1,216 c 55.2,0 100.1,-44.9 100.1,-100.1 0,-27.3 -10.7,-52.7 -30.3,-71.7 z"
   id="path871"
   inkscape:connector-curvature="0"
   style="fill:#00a64f" />
<path
   class="st0"
   d="M 100.1,215.6 C 77.6,215.6 60,171.7 60,115.7 c 0,-56 17.6,-99.9 40.1,-99.9 22.5,0 40.1,43.9 40.1,99.9 0,56 -17.6,99.9 -40.1,99.9 z m 0,-193.2 c -16.1,0 -33.4,37.5 -33.4,93.2 0,55.8 17.3,93.2 33.4,93.2 16.1,0 33.4,-37.5 33.4,-93.2 0,-55.7 -17.3,-93.2 -33.4,-93.2 z"
   id="path873"
   inkscape:connector-curvature="0"
   style="fill:#00a64f" />
</svg>