<?xml version="1.0" encoding="iso-8859-1"?>
<!-- Generator: Adobe Illustrator 21.0.0, SVG Export Plug-In . SVG Version: 6.00 Build 0)  -->
<svg version="1.1" id="Capa_1" xmlns="http://www.w3.org/2000/svg" xmlns:xlink="http://www.w3.org/1999/xlink" x="0px" y="0px"
	 viewBox="0 0 591.146 591.146" style="enable-background:new 0 0 591.146 591.146;" xml:space="preserve">
<g>
	<g>
		<g id="filled_outline_4_">
			<path style="fill:#DADDDF;" d="M512.396,305.425h4.926c35.36-0.7,63.459-29.932,62.76-65.292
				c-0.67-33.745-27.4-61.174-61.115-62.711c16.424-74.337-30.513-147.915-104.85-164.339
				c-66.533-14.7-133.835,21.419-158.358,84.987c-33.006-43.262-94.83-51.568-138.092-18.562
				c-29.981,22.877-44.277,60.868-36.809,97.835h-6.897c-35.37,0-64.041,28.671-64.041,64.041s28.671,64.041,64.041,64.041h4.926"/>
			<rect x="108.447" y="226.606" style="fill:#4398D1;" width="374.392" height="78.819"/>
			<rect x="108.447" y="344.835" style="fill:#4398D1;" width="374.392" height="78.819"/>
			<rect x="108.447" y="463.064" style="fill:#4398D1;" width="374.392" height="78.819"/>
			<rect x="147.857" y="305.425" style="fill:#126099;" width="39.41" height="39.41"/>
			<rect x="404.02" y="305.425" style="fill:#126099;" width="39.41" height="39.41"/>
			<rect x="147.857" y="423.655" style="fill:#126099;" width="39.41" height="39.41"/>
			<rect x="404.02" y="423.655" style="fill:#126099;" width="39.41" height="39.41"/>
			<rect x="147.857" y="541.884" style="fill:#126099;" width="39.41" height="39.41"/>
			<rect x="404.02" y="541.884" style="fill:#126099;" width="39.41" height="39.41"/>
			<rect x="433.577" y="492.622" style="fill:#88B337;" width="19.705" height="19.705"/>
			<rect x="354.758" y="492.622" style="fill:#88B337;" width="19.705" height="19.705"/>
			<rect x="433.577" y="256.163" style="fill:#88B337;" width="19.705" height="19.705"/>
			<rect x="394.167" y="256.163" style="fill:#88B337;" width="19.705" height="19.705"/>
			<rect x="354.758" y="256.163" style="fill:#88B337;" width="19.705" height="19.705"/>
			<rect x="138.004" y="256.163" style="fill:#88B337;" width="19.705" height="19.705"/>
			<rect x="433.577" y="374.392" style="fill:#88B337;" width="19.705" height="19.705"/>
			<rect x="394.167" y="374.392" style="fill:#88B337;" width="19.705" height="19.705"/>
			<rect x="354.758" y="374.392" style="fill:#88B337;" width="19.705" height="19.705"/>
			<rect x="138.004" y="374.392" style="fill:#88B337;" width="19.705" height="19.705"/>
			<rect x="394.167" y="492.622" style="fill:#88B337;" width="19.705" height="19.705"/>
			<rect x="138.004" y="492.622" style="fill:#88B337;" width="19.705" height="19.705"/>
			<rect x="433.577" y="256.163" width="19.705" height="19.705"/>
			<rect x="394.167" y="256.163" width="19.705" height="19.705"/>
			<rect x="354.758" y="256.163" width="19.705" height="19.705"/>
			<rect x="138.004" y="256.163" width="19.705" height="19.705"/>
			<rect x="433.577" y="374.392" width="19.705" height="19.705"/>
			<rect x="394.167" y="374.392" width="19.705" height="19.705"/>
			<rect x="354.758" y="374.392" width="19.705" height="19.705"/>
			<rect x="138.004" y="374.392" width="19.705" height="19.705"/>
			<path d="M108.447,453.212c-5.439,0-9.852,4.414-9.852,9.852v78.819c0,5.439,4.414,9.852,9.852,9.852h29.557v29.557
				c0,5.438,4.414,9.852,9.852,9.852h39.41c5.439,0,9.852-4.414,9.852-9.852v-29.557h197.049v29.557
				c0,5.438,4.414,9.852,9.852,9.852h39.41c5.439,0,9.852-4.414,9.852-9.852v-29.557h29.557c5.439,0,9.852-4.414,9.852-9.852
				v-78.819c0-5.439-4.414-9.852-9.852-9.852h-29.557v-19.705h29.557c5.439,0,9.852-4.414,9.852-9.852v-78.819
				c0-5.439-4.414-9.852-9.852-9.852h-29.557v-19.705h29.557c5.439,0,9.852-4.414,9.852-9.852v-78.819
				c0-5.439-4.414-9.852-9.852-9.852H108.447c-5.439,0-9.852,4.414-9.852,9.852v78.819c0,5.439,4.414,9.852,9.852,9.852h29.557
				v19.705h-29.557c-5.439,0-9.852,4.414-9.852,9.852v78.819c0,5.439,4.414,9.852,9.852,9.852h29.557v19.705H108.447z
				 M177.414,571.441h-19.705v-19.705h19.705V571.441z M433.577,571.441h-19.705v-19.705h19.705V571.441z M472.987,532.031H118.299
				v-59.115h354.688V532.031z M394.167,433.507v19.705H197.119v-19.705H394.167z M433.577,453.212h-19.705v-19.705h19.705V453.212z
				 M433.577,334.983h-19.705v-19.705h19.705V334.983z M197.119,334.983v-19.705h197.049v19.705H197.119z M118.299,236.458h354.688
				v59.115H118.299V236.458z M157.709,315.278h19.705v19.705h-19.705V315.278z M118.299,354.688h354.688v59.115H118.299V354.688z
				 M157.709,433.507h19.705v19.705h-19.705V433.507z"/>
			<rect x="433.577" y="492.622" width="19.705" height="19.705"/>
			<rect x="394.167" y="492.622" width="19.705" height="19.705"/>
			<rect x="354.758" y="492.622" width="19.705" height="19.705"/>
			<rect x="138.004" y="492.622" width="19.705" height="19.705"/>
			<path d="M530.564,168.723c1.015-6.936,1.527-13.931,1.537-20.936C532.131,66.198,466.021,0.03,384.433,0
				c-55.351-0.02-106.061,30.897-131.402,80.11c-20.148-19.853-47.331-30.937-75.617-30.848
				C117.59,49.331,69.106,97.815,69.037,157.639c0,3.33,0.158,6.66,0.463,9.99c-40.73,2.493-71.736,37.538-69.243,78.268
				c2.384,38.966,34.671,69.351,73.706,69.381h4.926v-19.705h-4.926c-29.932,0-54.188-24.257-54.188-54.188
				s24.267-54.188,54.188-54.188h6.897c5.439,0,9.852-4.414,9.852-9.852c0-0.66-0.069-1.32-0.197-1.97
				c-1.182-5.842-1.773-11.784-1.773-17.734c-0.049-48.927,39.567-88.623,88.485-88.682c27.764-0.03,53.932,12.956,70.701,35.085
				c3.301,4.325,9.478,5.163,13.803,1.862c1.448-1.103,2.562-2.581,3.222-4.276c25.449-65.962,99.549-98.8,165.511-73.351
				c49.4,19.055,81.962,66.563,81.933,119.51c-0.02,9.281-1.044,18.532-3.054,27.587c-1.163,5.31,2.197,10.572,7.508,11.734
				c0.611,0.138,1.241,0.207,1.872,0.227c29.873,1.842,52.592,27.557,50.74,57.43c-1.724,27.833-24.276,49.814-52.139,50.809h-4.926
				v19.705h4.926c40.809-0.108,73.805-33.272,73.706-74.08C590.93,205.63,565.531,175.186,530.564,168.723z"/>
		</g>
	</g>
</g>
<g>
</g>
<g>
</g>
<g>
</g>
<g>
</g>
<g>
</g>
<g>
</g>
<g>
</g>
<g>
</g>
<g>
</g>
<g>
</g>
<g>
</g>
<g>
</g>
<g>
</g>
<g>
</g>
<g>
</g>
</svg>
