<?xml version="1.0"?>
<svg xmlns="http://www.w3.org/2000/svg" height="512px" version="1.1" viewBox="-1 0 700 700.00025" width="512px">
<g id="surface1">
<path d="M 125 500 L 575 500 L 575 425 L 125 425 Z M 525 450 L 550 450 L 550 475 L 525 475 Z M 475 450 L 500 450 L 500 475 L 475 475 Z M 425 450 L 450 450 L 450 475 L 425 475 Z M 150 450 L 175 450 L 175 475 L 150 475 Z M 150 450 " style=" fill-rule:nonzero;fill-opacity:1;" stroke="#f16521" fill="#f16521"/>
<path d="M 225 525 L 475 525 L 475 550 L 225 550 Z M 225 525 " style=" fill-rule:nonzero;fill-opacity:1;" stroke="#f16521" fill="#f16521"/>
<path d="M 175 525 L 200 525 L 200 550 L 175 550 Z M 175 525 " style=" fill-rule:nonzero;fill-opacity:1;" stroke="#f16521" fill="#f16521"/>
<path d="M 500 675 L 525 675 L 525 700 L 500 700 Z M 500 675 " style=" fill-rule:nonzero;fill-opacity:1;" stroke="#f16521" fill="#f16521"/>
<path d="M 125 650 L 575 650 L 575 575 L 125 575 Z M 525 600 L 550 600 L 550 625 L 525 625 Z M 475 600 L 500 600 L 500 625 L 475 625 Z M 425 600 L 450 600 L 450 625 L 425 625 Z M 150 600 L 175 600 L 175 625 L 150 625 Z M 150 600 " style=" fill-rule:nonzero;fill-opacity:1;" stroke="#f16521" fill="#f16521"/>
<path d="M 175 675 L 200 675 L 200 700 L 175 700 Z M 175 675 " style=" fill-rule:nonzero;fill-opacity:1;" stroke="#f16521" fill="#f16521"/>
<path d="M 175 375 L 200 375 L 200 400 L 175 400 Z M 175 375 " style=" fill-rule:nonzero;fill-opacity:1;" stroke="#f16521" fill="#f16521"/>
<path d="M 500 525 L 525 525 L 525 550 L 500 550 Z M 500 525 " style=" fill-rule:nonzero;fill-opacity:1;" stroke="#f16521" fill="#f16521"/>
<path d="M 575 350 L 575 275 L 125 275 L 125 350 Z M 175 325 L 150 325 L 150 300 L 175 300 Z M 450 325 L 425 325 L 425 300 L 450 300 Z M 500 325 L 475 325 L 475 300 L 500 300 Z M 525 300 L 550 300 L 550 325 L 525 325 Z M 525 300 " style=" fill-rule:nonzero;fill-opacity:1;" stroke="#f16521" fill="#f16521"/>
<path d="M 633.027344 212.613281 C 629.3125 212.519531 625.828125 210.773438 623.53125 207.851562 C 621.230469 204.933594 620.351562 201.136719 621.121094 197.5 C 631.851562 149.410156 620.132812 99.050781 589.277344 60.636719 C 558.417969 22.214844 511.773438 -0.0976562 462.5 0 C 395.308594 -0.246094 334.984375 41.152344 311.0625 103.9375 C 309.429688 108.160156 305.640625 111.164062 301.160156 111.808594 C 296.679688 112.441406 292.207031 110.601562 289.46875 107.003906 C 260.296875 68.507812 209.792969 52.957031 164.027344 68.367188 C 118.257812 83.78125 87.445312 126.703125 87.5 175 C 87.503906 182.558594 88.261719 190.09375 89.765625 197.5 C 90.519531 201.175781 89.570312 205.003906 87.199219 207.910156 C 84.816406 210.820312 81.253906 212.503906 77.503906 212.5 L 68.75 212.5 C 30.78125 212.5 0 243.28125 0 281.25 C 0 319.21875 30.78125 350 68.75 350 L 100 350 L 100 262.5 C 100 255.597656 105.59375 250 112.5 250 L 587.5 250 C 594.402344 250 600 255.597656 600 262.5 L 600 350 L 631.25 350 C 668.183594 349.0625 697.773438 319.105469 698.246094 282.160156 C 698.726562 245.21875 669.921875 214.507812 633.027344 212.613281 Z M 633.027344 212.613281 " style=" fill-rule:nonzero;fill-opacity:1;" stroke="#f16521" fill="#f16521"/>
<path d="M 225 375 L 475 375 L 475 400 L 225 400 Z M 225 375 " style=" fill-rule:nonzero;fill-opacity:1;" stroke="#f16521" fill="#f16521"/>
<path d="M 500 375 L 525 375 L 525 400 L 500 400 Z M 500 375 " style=" fill-rule:nonzero;fill-opacity:1;" stroke="#f16521" fill="#f16521"/>
</g>
</svg>
