<?xml version="1.0" encoding="UTF-8" standalone="no"?>
<!-- Generator: Adobe Illustrator 17.1.0, SVG Export Plug-In . SVG Version: 6.00 Build 0)  -->

<svg
   xmlns:dc="http://purl.org/dc/elements/1.1/"
   xmlns:cc="http://creativecommons.org/ns#"
   xmlns:rdf="http://www.w3.org/1999/02/22-rdf-syntax-ns#"
   xmlns:svg="http://www.w3.org/2000/svg"
   xmlns="http://www.w3.org/2000/svg"
   xmlns:sodipodi="http://sodipodi.sourceforge.net/DTD/sodipodi-0.dtd"
   xmlns:inkscape="http://www.inkscape.org/namespaces/inkscape"
   version="1.1"
   id="Capa_1"
   x="0px"
   y="0px"
   viewBox="0 0 511 270.944"
   xml:space="preserve"
   sodipodi:docname="drone-green.svg"
   width="511"
   height="270.944"
   inkscape:version="0.92.3 (unknown)"><metadata
   id="metadata47"><rdf:RDF><cc:Work
       rdf:about=""><dc:format>image/svg+xml</dc:format><dc:type
         rdf:resource="http://purl.org/dc/dcmitype/StillImage" /><dc:title></dc:title></cc:Work></rdf:RDF></metadata><defs
   id="defs45" /><sodipodi:namedview
   pagecolor="#ffffff"
   bordercolor="#666666"
   borderopacity="1"
   objecttolerance="10"
   gridtolerance="10"
   guidetolerance="10"
   inkscape:pageopacity="0"
   inkscape:pageshadow="2"
   inkscape:window-width="1920"
   inkscape:window-height="1017"
   id="namedview43"
   showgrid="false"
   inkscape:pagecheckerboard="true"
   fit-margin-top="0"
   fit-margin-left="0"
   fit-margin-right="0"
   fit-margin-bottom="0"
   inkscape:zoom="0.46183953"
   inkscape:cx="-103.9322"
   inkscape:cy="135.472"
   inkscape:window-x="0"
   inkscape:window-y="23"
   inkscape:window-maximized="0"
   inkscape:current-layer="Capa_1" />
<g
   id="g10"
   transform="translate(0,-120.028)"
   style="fill:#00ff00;fill-opacity:1">
	<path
   d="M 503.5,144.028 H 439 v -0.5 c 0,-12.958 -10.542,-23.5 -23.5,-23.5 -12.958,0 -23.5,10.542 -23.5,23.5 v 0.5 h -64.5 c -4.142,0 -7.5,3.358 -7.5,7.5 0,4.142 3.358,7.5 7.5,7.5 H 384 v 8.5 c 0,0.168 0.01,0.333 0.013,0.5 h -48.357 c -0.007,0 -0.014,0 -0.021,0 H 175.376 c -0.012,0 -0.024,0 -0.036,0 h -48.353 c 0.003,-0.167 0.013,-0.332 0.013,-0.5 v -8.5 h 56.5 c 4.142,0 7.5,-3.358 7.5,-7.5 0,-4.142 -3.358,-7.5 -7.5,-7.5 H 119 v -0.5 c 0,-12.958 -10.542,-23.5 -23.5,-23.5 -12.958,0 -23.5,10.542 -23.5,23.5 v 0.5 H 7.5 c -4.142,0 -7.5,3.358 -7.5,7.5 0,4.142 3.358,7.5 7.5,7.5 H 64 v 8.5 c 0,17.369 14.131,31.5 31.5,31.5 11.737,0 21.987,-6.457 27.406,-16 h 47.188 l 6.997,20.991 c 5.385,16.155 20.444,27.009 37.473,27.009 H 248 v 18.234 c -9.29,3.138 -16,11.93 -16,22.266 0,12.958 10.542,23.5 23.5,23.5 12.958,0 23.5,-10.542 23.5,-23.5 0,-10.336 -6.71,-19.128 -16,-22.266 v -18.234 h 33.436 c 17.029,0 32.088,-10.854 37.473,-27.009 l 6.997,-20.991 h 47.188 c 5.419,9.543 15.669,16 27.406,16 17.369,0 31.5,-14.131 31.5,-31.5 v -8.5 h 56.5 c 4.142,0 7.5,-3.358 7.5,-7.5 0,-4.142 -3.358,-7.5 -7.5,-7.5 z M 87,143.528 c 0,-4.687 3.813,-8.5 8.5,-8.5 4.687,0 8.5,3.813 8.5,8.5 v 0.5 H 87 Z m 8.5,40.5 c -9.098,0 -16.5,-7.402 -16.5,-16.5 v -8.5 h 33 v 8.5 c 0,9.098 -7.402,16.5 -16.5,16.5 z m 160,96 c -4.687,0 -8.5,-3.813 -8.5,-8.5 0,-4.687 3.813,-8.5 8.5,-8.5 4.687,0 8.5,3.813 8.5,8.5 0,4.687 -3.813,8.5 -8.5,8.5 z m 64.178,-80.752 c -3.34,10.02 -12.68,16.752 -23.243,16.752 h -81.871 c -10.563,0 -19.903,-6.732 -23.243,-16.752 l -5.416,-16.248 H 325.093 Z M 407,143.528 c 0,-4.687 3.813,-8.5 8.5,-8.5 4.687,0 8.5,3.813 8.5,8.5 v 0.5 h -17 z m 25,24 c 0,9.098 -7.402,16.5 -16.5,16.5 -9.098,0 -16.5,-7.402 -16.5,-16.5 v -8.5 h 33 z"
   id="path2"
   inkscape:connector-curvature="0"
   style="fill:#00ff00;fill-opacity:1" />
	<path
   d="m 294.744,310.772 c 2.929,-2.929 2.929,-7.677 0,-10.606 -2.929,-2.929 -7.678,-2.929 -10.606,0 -15.791,15.791 -41.484,15.791 -57.275,0 -2.929,-2.929 -7.678,-2.929 -10.606,0 -2.929,2.929 -2.929,7.677 0,10.606 10.82,10.82 25.032,16.229 39.244,16.229 14.212,0 28.423,-5.409 39.243,-16.229 z"
   id="path4"
   inkscape:connector-curvature="0"
   style="fill:#00ff00;fill-opacity:1" />
	<path
   d="m 193.628,322.793 c -2.929,2.929 -2.929,7.677 0,10.606 16.526,16.527 38.5,25.628 61.872,25.628 23.372,0 45.345,-9.102 61.872,-25.628 2.929,-2.929 2.929,-7.678 0,-10.606 -2.929,-2.929 -7.678,-2.929 -10.606,0 -13.693,13.693 -31.9,21.235 -51.265,21.235 -19.365,0 -37.572,-7.541 -51.265,-21.235 -2.929,-2.928 -7.678,-2.929 -10.608,0 z"
   id="path6"
   inkscape:connector-curvature="0"
   style="fill:#00ff00;fill-opacity:1" />
	<path
   d="m 329.393,345.421 c -40.744,40.744 -107.041,40.744 -147.785,0 -2.929,-2.929 -7.678,-2.929 -10.606,0 -2.929,2.929 -2.929,7.677 0,10.606 23.296,23.296 53.898,34.945 84.499,34.945 30.601,0 61.203,-11.648 84.499,-34.945 2.929,-2.929 2.929,-7.677 0,-10.606 -2.929,-2.929 -7.678,-2.929 -10.607,0 z"
   id="path8"
   inkscape:connector-curvature="0"
   style="fill:#00ff00;fill-opacity:1" />
</g>
<g
   id="g12"
   transform="translate(0,-120.028)">
</g>
<g
   id="g14"
   transform="translate(0,-120.028)">
</g>
<g
   id="g16"
   transform="translate(0,-120.028)">
</g>
<g
   id="g18"
   transform="translate(0,-120.028)">
</g>
<g
   id="g20"
   transform="translate(0,-120.028)">
</g>
<g
   id="g22"
   transform="translate(0,-120.028)">
</g>
<g
   id="g24"
   transform="translate(0,-120.028)">
</g>
<g
   id="g26"
   transform="translate(0,-120.028)">
</g>
<g
   id="g28"
   transform="translate(0,-120.028)">
</g>
<g
   id="g30"
   transform="translate(0,-120.028)">
</g>
<g
   id="g32"
   transform="translate(0,-120.028)">
</g>
<g
   id="g34"
   transform="translate(0,-120.028)">
</g>
<g
   id="g36"
   transform="translate(0,-120.028)">
</g>
<g
   id="g38"
   transform="translate(0,-120.028)">
</g>
<g
   id="g40"
   transform="translate(0,-120.028)">
</g>
</svg>