<?xml version="1.0" encoding="UTF-8" standalone="no"?>
<!-- Generator: Adobe Illustrator 21.1.0, SVG Export Plug-In . SVG Version: 6.00 Build 0)  -->

<svg
   xmlns:dc="http://purl.org/dc/elements/1.1/"
   xmlns:cc="http://creativecommons.org/ns#"
   xmlns:rdf="http://www.w3.org/1999/02/22-rdf-syntax-ns#"
   xmlns:svg="http://www.w3.org/2000/svg"
   xmlns="http://www.w3.org/2000/svg"
   xmlns:sodipodi="http://sodipodi.sourceforge.net/DTD/sodipodi-0.dtd"
   xmlns:inkscape="http://www.inkscape.org/namespaces/inkscape"
   version="1.1"
   id="Layer_1"
   x="0px"
   y="0px"
   viewBox="0 0 119.39999 57.5"
   xml:space="preserve"
   sodipodi:docname="Goggles-02-idcc.svg"
   width="119.39999"
   height="57.5"
   inkscape:version="0.92.3 (unknown)"><metadata
   id="metadata85"><rdf:RDF><cc:Work
       rdf:about=""><dc:format>image/svg+xml</dc:format><dc:type
         rdf:resource="http://purl.org/dc/dcmitype/StillImage" /><dc:title></dc:title></cc:Work></rdf:RDF></metadata><defs
   id="defs83" /><sodipodi:namedview
   pagecolor="#ffffff"
   bordercolor="#666666"
   borderopacity="1"
   objecttolerance="10"
   gridtolerance="10"
   guidetolerance="10"
   inkscape:pageopacity="0"
   inkscape:pageshadow="2"
   inkscape:window-width="1846"
   inkscape:window-height="1057"
   id="namedview81"
   showgrid="false"
   inkscape:pagecheckerboard="true"
   fit-margin-top="0"
   fit-margin-left="0"
   fit-margin-right="0"
   fit-margin-bottom="0"
   inkscape:zoom="5.8263889"
   inkscape:cx="59.7"
   inkscape:cy="28.7"
   inkscape:window-x="74"
   inkscape:window-y="23"
   inkscape:window-maximized="0"
   inkscape:current-layer="layer2" />
<style
   type="text/css"
   id="style64">
	.st0{fill:#F26522;}
</style>
<g
   inkscape:groupmode="layer"
   id="layer2"
   inkscape:label="backdrop"><rect
     style="fill:#ffffff;fill-opacity:1;stroke-width:2.8700428"
     id="rect974"
     width="119.4"
     height="57.5"
     x="0"
     y="0" /></g><g
   id="g78"
   transform="translate(-12.3,-43.2)">
	<g
   id="g70">
		<rect
   x="12.3"
   y="59.099998"
   class="st0"
   width="9"
   height="25.799999"
   id="rect66"
   style="fill:#f26522" />
		<rect
   x="122.7"
   y="59.099998"
   class="st0"
   width="9"
   height="25.799999"
   id="rect68"
   style="fill:#f26522" />
	</g>
	<g
   id="g76">
		<path
   class="st0"
   d="M 107.6,43.2 H 36.4 C 30.1,43.2 25,48.3 25,54.6 v 34.7 c 0,6.3 5.1,11.4 11.4,11.4 h 24.3 c -0.2,-0.8 -0.2,-1.5 -0.2,-2.3 0,-0.5 0,-0.9 0.1,-1.3 H 35.4 c -3.9,0 -7.1,-3.1 -7.1,-7 V 53.9 c 0,-3.8 3.2,-7 7.1,-7 h 73.2 c 3.9,0 7.1,3.1 7.1,7 v 36.2 c 0,3.8 -3.2,7 -7.1,7 H 83.4 c 0.1,0.4 0.1,0.9 0.1,1.3 0,0.8 -0.1,1.6 -0.2,2.3 h 24.3 c 6.3,0 11.4,-5.1 11.4,-11.4 V 54.6 c 0,-6.2 -5.2,-11.4 -11.4,-11.4 z"
   id="path72"
   inkscape:connector-curvature="0"
   style="fill:#f26522" />
		<path
   class="st0"
   d="M 114.7,90.1 V 53.9 c 0,-3.3 -2.7,-6 -6.1,-6 H 35.4 c -3.4,0 -6.1,2.7 -6.1,6 v 36.2 c 0,3.3 2.7,6 6.1,6 h 25.3 c 1.1,-5.3 5.7,-9.2 11.3,-9.2 5.6,0 10.2,4 11.3,9.2 h 25.3 c 3.4,0 6.1,-2.7 6.1,-6 z m -5.9,-31.9 h 2.5 v 10 h -2.5 z m 0,15.9 h 2.5 v 5.6 h -2.5 z"
   id="path74"
   inkscape:connector-curvature="0"
   style="fill:#f26522" />
	</g>
</g>
</svg>