<?xml version="1.0" encoding="UTF-8" standalone="no"?>
<!-- Generator: Adobe Illustrator 21.1.0, SVG Export Plug-In . SVG Version: 6.00 Build 0)  -->

<svg
   xmlns:dc="http://purl.org/dc/elements/1.1/"
   xmlns:cc="http://creativecommons.org/ns#"
   xmlns:rdf="http://www.w3.org/1999/02/22-rdf-syntax-ns#"
   xmlns:svg="http://www.w3.org/2000/svg"
   xmlns="http://www.w3.org/2000/svg"
   xmlns:sodipodi="http://sodipodi.sourceforge.net/DTD/sodipodi-0.dtd"
   xmlns:inkscape="http://www.inkscape.org/namespaces/inkscape"
   version="1.1"
   id="Layer_1"
   x="0px"
   y="0px"
   viewBox="0 0 48.799999 89.199997"
   xml:space="preserve"
   sodipodi:docname="Phone-Bobsled-02-idcc.svg"
   width="48.799999"
   height="89.199997"
   inkscape:version="0.92.3 (unknown)"><metadata
   id="metadata85"><rdf:RDF><cc:Work
       rdf:about=""><dc:format>image/svg+xml</dc:format><dc:type
         rdf:resource="http://purl.org/dc/dcmitype/StillImage" /><dc:title></dc:title></cc:Work></rdf:RDF></metadata><defs
   id="defs83" /><sodipodi:namedview
   pagecolor="#ffffff"
   bordercolor="#666666"
   borderopacity="1"
   objecttolerance="10"
   gridtolerance="10"
   guidetolerance="10"
   inkscape:pageopacity="0"
   inkscape:pageshadow="2"
   inkscape:window-width="1920"
   inkscape:window-height="1017"
   id="namedview81"
   showgrid="false"
   inkscape:pagecheckerboard="true"
   fit-margin-top="0"
   fit-margin-left="0"
   fit-margin-right="0"
   fit-margin-bottom="0"
   inkscape:zoom="5.8263889"
   inkscape:cx="24.4"
   inkscape:cy="44.6"
   inkscape:window-x="1920"
   inkscape:window-y="23"
   inkscape:window-maximized="0"
   inkscape:current-layer="Layer_1" />
<style
   type="text/css"
   id="style58">
	.st0{fill:#90298B;}
	.st1{fill:#90278E;}
</style>
<g
   id="g78"
   transform="translate(-47.6,-27.4)">
	<g
   id="g72">
		<circle
   class="st0"
   cx="60.200001"
   cy="60.799999"
   r="2"
   id="circle60"
   style="fill:#90298b" />
		<circle
   class="st0"
   cx="65"
   cy="61.299999"
   r="2"
   id="circle62"
   style="fill:#90298b" />
		<circle
   class="st0"
   cx="69.699997"
   cy="60.900002"
   r="2"
   id="circle64"
   style="fill:#90298b" />
		<path
   class="st0"
   d="m 74.1,65.7 v 0 L 74,67.3 c 0,0.1 0.1,0.2 0.2,0.2 h 0.1 v -1.6 c -0.1,-0.1 -0.1,-0.2 -0.2,-0.2 z"
   id="path66"
   inkscape:connector-curvature="0"
   style="fill:#90298b" />
		<path
   class="st0"
   d="M 75.6,65.7 H 75 c -0.1,0 -0.2,0.1 -0.2,0.2 v 1.3 c 0,0.1 0.1,0.2 0.2,0.2 h 0.6 c 0.2,0 0.5,-0.1 0.7,-0.2 0.2,-0.2 0.3,-0.4 0.3,-0.6 0,-0.2 -0.1,-0.5 -0.3,-0.6 -0.2,-0.2 -0.4,-0.3 -0.7,-0.3 z m 0,1.6 H 75 c 0,0 0,0 0,0 V 66 c 0,0 0,0 0,0 h 0.6 c 0.2,0 0.4,0.1 0.5,0.2 0.1,0.1 0.2,0.3 0.2,0.5 0,0.3 -0.3,0.6 -0.7,0.6 z"
   id="path68"
   inkscape:connector-curvature="0"
   style="fill:#90298b" />
		<path
   class="st0"
   d="m 81.8,63.5 c -6.2,-1.8 -9,-1 -9,-1 0,0 -7.7,3 -15,0.7 -3.8,-1.2 -2.2,2.2 -2.2,2.2 0,0 -2,0.4 -2.2,0.9 -0.2,0.5 0.5,3.2 0.7,3.5 0.2,0.3 4,1 4,1 h 2.4 c 0,0 0,0 0,0.1 v 0.6 c 0,0.1 0,0.1 0,0.2 h -1.7 c -0.2,0 -0.3,0.1 -0.3,0.3 v 0.2 c 0,0.2 0.1,0.3 0.3,0.3 h 9.7 c 0,0 1.3,0.2 1.5,-1 0,-0.2 -0.5,0.2 -1.3,0.2 h -1 c 0,-0.1 0,-0.1 0,-0.2 v -0.6 c 0,0 0,0 0,-0.1 h 10.9 c 0,0 0,0 0,0.1 v 0.6 c 0,0.1 0,0.1 0,0.2 H 77 c -0.2,0 -0.3,0.1 -0.3,0.3 v 0.2 c 0,0.2 0.1,0.3 0.3,0.3 h 9.7 c 0,0 1.3,0.2 1.5,-1 0,-0.2 -0.5,0.2 -1.3,0.2 h -1.2 c 0,-0.1 0,-0.1 0,-0.2 v -0.6 c 0,0 0,0 0,-0.1 h 1 c 0,0 3.4,-0.9 3.5,-1.7 0.3,-0.8 1.9,-2.5 -8.4,-5.6 z m -20,8.1 c 0,-0.1 0,-0.1 0,-0.2 v -0.6 c 0,0 0,0 0,-0.1 h 4.7 c 0,0 0,0 0,0.1 v 0.6 c 0,0.1 0,0.1 0,0.2 z m 13.3,-2.4 c -1.4,0 -2.6,-1.2 -2.6,-2.6 0,-1.4 1.2,-2.6 2.6,-2.6 1.4,0 2.6,1.2 2.6,2.6 0.1,1.5 -1.1,2.6 -2.6,2.6 z m 4.9,2.4 c 0,-0.1 0,-0.1 0,-0.2 v -0.6 c 0,0 0,0 0,-0.1 h 4.6 c 0,0 0,0 0,0.1 v 0.6 c 0,0.1 0,0.1 0,0.2 z"
   id="path70"
   inkscape:connector-curvature="0"
   style="fill:#90298b" />
	</g>
	<g
   id="g76">
		<path
   class="st1"
   d="M 92.7,27.4 H 51.3 c -2,0 -3.7,1.6 -3.7,3.7 v 81.8 c 0,2 1.6,3.7 3.7,3.7 h 41.4 c 2,0 3.7,-1.6 3.7,-3.7 V 31.1 c 0,-2.1 -1.7,-3.7 -3.7,-3.7 z M 72,110.2 c -2.5,0 -4.4,-2 -4.4,-4.4 0,-2.5 2,-4.4 4.4,-4.4 2.5,0 4.4,2 4.4,4.4 0,2.4 -1.9,4.4 -4.4,4.4 z M 92.9,97.6 H 51.1 V 33.3 h 41.7 v 64.3 z"
   id="path74"
   inkscape:connector-curvature="0"
   style="fill:#90278e" />
	</g>
</g>
<path
   style="fill:#ffffff;stroke-width:0.1716329"
   d="M 3.5294398,38.04362 V 5.9482688 H 24.29702 45.064601 V 38.04362 70.138972 H 24.29702 3.5294398 Z M 22.04803,44.839427 c 0.671432,-0.60807 0.471447,-0.786052 -0.754585,-0.671562 -1.058651,0.09886 -1.115614,0.08538 -1.115614,-0.263908 v -0.368084 h 5.406436 c 5.292014,0 5.406436,0.0073 5.406436,0.343266 0,0.302154 -0.114422,0.343266 -0.955381,0.343266 -0.940977,0 -0.954562,0.0071 -0.901072,0.47199 l 0.05431,0.471991 h 5.345687 c 5.016019,0 5.367956,-0.02016 5.706793,-0.326959 0.678383,-0.61423 0.472343,-0.778009 -0.840323,-0.66796 -1.14539,0.09603 -1.20143,0.08355 -1.20143,-0.267435 0,-0.270884 0.105429,-0.368159 0.399021,-0.368159 0.5414,0 2.759028,-0.766526 3.446062,-1.191136 0.635055,-0.392486 1.025936,-1.360896 0.794743,-1.968983 C 42.132045,38.51603 34.37062,35.522196 28.808297,34.963615 26.77266,34.759191 25.934915,34.836651 24.015281,35.406788 19.486436,36.751872 14.781723,36.922229 10.791977,35.885606 8.8979323,35.393492 8.5438897,35.376425 8.0085001,35.751427 7.6423186,36.00791 7.6137939,36.12563 7.6965858,37.038674 c 0.077665,0.856503 0.049163,1.005502 -0.1929567,1.008715 -0.156245,0.0021 -0.6123299,0.152767 -1.0135218,0.334875 -0.6618484,0.300425 -0.7294398,0.388383 -0.7294398,0.949238 0,0.851181 0.492306,2.942653 0.7405058,3.145902 0.3569846,0.292334 4.1529587,1.058469 5.2444027,1.058469 0.937618,0 1.05204,0.03733 1.05204,0.343266 0,0.301658 -0.114422,0.343266 -0.943981,0.343266 -0.87451,0 -0.943981,0.02947 -0.943981,0.400476 0,0.220263 0.05459,0.455062 0.121302,0.521779 0.06672,0.06672 2.491619,0.0989 5.388673,0.07151 4.899446,-0.04631 5.29259,-0.07262 5.628401,-0.376746 z m -3.742048,-9.121184 c 0.595722,-0.308058 1.183749,-1.185562 1.184676,-1.767873 0.0017,-1.081917 -0.9853,-2.085534 -2.05105,-2.085534 -2.137229,0 -2.863741,2.913704 -0.960696,3.852908 0.672689,0.33199 1.185767,0.33213 1.82707,5.15e-4 z m 4.567529,-0.330487 c 0.688575,-0.197512 1.251876,-1.062679 1.251876,-1.92274 0,-0.654055 -0.09192,-0.868262 -0.583551,-1.359894 -0.320954,-0.320953 -0.765054,-0.592101 -0.98689,-0.60255 -1.308216,-0.06162 -1.935361,0.256262 -2.319531,1.175708 -0.470005,1.124882 0.106637,2.459398 1.197552,2.77148 0.542241,0.155122 0.708545,0.147963 1.440544,-0.062 z m -8.804675,-0.595735 c 0.453511,-0.453512 0.530926,-0.657496 0.530926,-1.398978 0,-0.783193 -0.06267,-0.925487 -0.641103,-1.455579 -1.754614,-1.607982 -4.2272214,0.389396 -3.123714,2.523344 0.576101,1.114057 2.276857,1.288247 3.233891,0.331213 z"
   id="path71"
   inkscape:connector-curvature="0" /><path
   style="fill:#ffffff;stroke-width:0.1716329"
   d="m 26.237216,41.312198 c -2.061959,-1.257256 -1.364689,-4.344747 1.036148,-4.588037 1.493388,-0.151333 2.687542,1.007896 2.687542,2.608942 0,1.000225 -0.366648,1.625676 -1.208062,2.060788 -0.689942,0.356783 -1.858757,0.318826 -2.515628,-0.08169 z m 0.462665,-2.152964 c 0,-0.519189 -0.07724,-0.943981 -0.171633,-0.943981 -0.0944,0 -0.171633,0.424792 -0.171633,0.943981 0,0.51919 0.07723,0.943981 0.171633,0.943981 0.0944,0 0.171633,-0.424791 0.171633,-0.943981 z m 2.182297,0.493479 c 0.312391,-0.427219 0.275428,-0.686442 -0.155066,-1.087508 -0.455379,-0.42425 -1.428548,-0.472585 -1.579786,-0.07847 -0.136236,0.355024 -0.132766,0.999005 0.0073,1.364139 0.146674,0.382226 1.408994,0.237423 1.727504,-0.198166 z"
   id="path73"
   inkscape:connector-curvature="0" /><path
   style="fill:#ffffff;stroke-width:0.1716329"
   d="m 27.558045,39.245051 c 0,-0.485325 0.04597,-0.53241 0.471991,-0.483391 0.374552,0.0431 0.47199,0.142889 0.47199,0.483391 0,0.340502 -0.09744,0.440293 -0.47199,0.48339 -0.426017,0.04902 -0.471991,0.0019 -0.471991,-0.48339 z"
   id="path75"
   inkscape:connector-curvature="0" /><path
   style="fill:#ffffff;stroke-width:0.1716329"
   d="m 32.535399,43.707506 c 0,-0.325663 0.114422,-0.343266 2.231228,-0.343266 2.116806,0 2.231228,0.0176 2.231228,0.343266 0,0.325662 -0.114422,0.343266 -2.231228,0.343266 -2.116806,0 -2.231228,-0.0176 -2.231228,-0.343266 z"
   id="path77"
   inkscape:connector-curvature="0" /><path
   style="fill:#ffffff;stroke-width:0.1716329"
   d="m 14.342312,43.707506 c 0,-0.325663 0.114422,-0.343266 2.231228,-0.343266 2.116806,0 2.231228,0.0176 2.231228,0.343266 0,0.325662 -0.114422,0.343266 -2.231228,0.343266 -2.116806,0 -2.231228,-0.0176 -2.231228,-0.343266 z"
   id="path79"
   inkscape:connector-curvature="0" /><path
   style="fill:#ffffff;stroke-width:0.1716329"
   d="m 22.437958,82.221347 c -1.971274,-0.982327 -2.86462,-3.437833 -2.007792,-5.518745 0.372639,-0.905 1.7165,-2.139858 2.62495,-2.412037 2.025943,-0.606987 4.099892,0.213404 5.076745,2.008205 0.613022,1.126322 0.734614,2.139094 0.395817,3.296854 -0.756096,2.583787 -3.660679,3.836165 -6.08972,2.625723 z"
   id="path81"
   inkscape:connector-curvature="0" /></svg>