<?xml version="1.0" encoding="UTF-8" standalone="no"?>
<!-- Generator: Adobe Illustrator 21.1.0, SVG Export Plug-In . SVG Version: 6.00 Build 0)  -->

<svg
   xmlns:dc="http://purl.org/dc/elements/1.1/"
   xmlns:cc="http://creativecommons.org/ns#"
   xmlns:rdf="http://www.w3.org/1999/02/22-rdf-syntax-ns#"
   xmlns:svg="http://www.w3.org/2000/svg"
   xmlns="http://www.w3.org/2000/svg"
   xmlns:sodipodi="http://sodipodi.sourceforge.net/DTD/sodipodi-0.dtd"
   xmlns:inkscape="http://www.inkscape.org/namespaces/inkscape"
   version="1.1"
   id="Layer_1"
   x="0px"
   y="0px"
   viewBox="0 0 48.704201 89.199997"
   xml:space="preserve"
   sodipodi:docname="Phone-Bot-02-idcc.svg"
   width="48.704201"
   height="89.199997"
   inkscape:version="0.92.3 (unknown)"><metadata
   id="metadata228"><rdf:RDF><cc:Work
       rdf:about=""><dc:format>image/svg+xml</dc:format><dc:type
         rdf:resource="http://purl.org/dc/dcmitype/StillImage" /><dc:title></dc:title></cc:Work></rdf:RDF></metadata><defs
   id="defs226" /><sodipodi:namedview
   pagecolor="#ffffff"
   bordercolor="#666666"
   borderopacity="1"
   objecttolerance="10"
   gridtolerance="10"
   guidetolerance="10"
   inkscape:pageopacity="0"
   inkscape:pageshadow="2"
   inkscape:window-width="1920"
   inkscape:window-height="1017"
   id="namedview224"
   showgrid="false"
   inkscape:pagecheckerboard="true"
   fit-margin-top="0"
   fit-margin-left="0"
   fit-margin-right="0"
   fit-margin-bottom="0"
   inkscape:zoom="4.6354778"
   inkscape:cx="67.507839"
   inkscape:cy="43.178532"
   inkscape:window-x="1920"
   inkscape:window-y="31"
   inkscape:window-maximized="0"
   inkscape:current-layer="Layer_1" />
<style
   type="text/css"
   id="style187">
	.st0{fill:#92278F;}
	.st1{fill:#91298C;}
</style>
<g
   id="g221"
   transform="translate(-47.6,-27.4)">
	<path
   class="st0"
   d="M 92.7,27.4 H 51.3 c -2,0 -3.7,1.6 -3.7,3.7 v 81.8 c 0,2 1.6,3.7 3.7,3.7 h 41.3 c 2,0 3.7,-1.6 3.7,-3.7 V 31.1 c 0.1,-2 -1.6,-3.7 -3.6,-3.7 z M 72,110.2 c -2.5,0 -4.4,-2 -4.4,-4.4 0,-2.5 2,-4.4 4.4,-4.4 2.5,0 4.4,2 4.4,4.4 0,2.4 -1.9,4.4 -4.4,4.4 z M 92.9,97.6 H 51.1 V 33.3 h 41.7 v 64.3 z"
   id="path189"
   inkscape:connector-curvature="0"
   style="fill:#92278f" />
	<g
   id="g219">
		<path
   class="st1"
   d="m 83,83.1 c -1.3,-1 -3.2,-0.9 -4.2,0.4 -0.7,0.9 -0.8,2 -0.5,3 l 5.6,-2.1 c -0.2,-0.6 -0.5,-1 -0.9,-1.3 z"
   id="path191"
   inkscape:connector-curvature="0"
   style="fill:#91298c" />
		<path
   class="st1"
   d="m 72,53.5 c 1.9,0 3.5,-1.5 3.5,-3.5 0,-1.9 -1.5,-3.5 -3.5,-3.5 -1.9,0 -3.5,1.5 -3.5,3.5 0,2 1.6,3.5 3.5,3.5 z m 1.5,-3.6 c 0.2,0 0.4,0.2 0.4,0.6 0,0.4 -0.2,0.5 -0.4,0.5 -0.2,0 -0.4,-0.2 -0.4,-0.6 0,-0.4 0.2,-0.5 0.4,-0.5 z m -3,0 c 0.2,0 0.4,0.2 0.4,0.6 0,0.4 -0.2,0.5 -0.4,0.5 -0.2,0 -0.4,-0.2 -0.4,-0.6 0,-0.4 0.1,-0.5 0.4,-0.5 z"
   id="path193"
   inkscape:connector-curvature="0"
   style="fill:#91298c" />
		<path
   class="st1"
   d="m 79.1,82.7 1.6,-0.6 c 0.1,-0.1 0.2,-0.2 0.2,-0.3 L 79.3,77.4 C 79.2,77.3 79.1,77.2 79,77.2 l -1.6,0.6 c -0.1,0.1 -0.2,0.2 -0.2,0.3 l 1.6,4.4 c 0,0.2 0.1,0.2 0.3,0.2 z"
   id="path195"
   inkscape:connector-curvature="0"
   style="fill:#91298c" />
		<path
   class="st1"
   d="m 77.4,70.8 c 0,-0.7 -0.3,-1.3 -0.9,-1.7 0.1,-0.1 0.2,-0.3 0.2,-0.5 V 55 c 0,-0.5 -0.4,-0.8 -0.8,-0.8 h -3 V 54 c 0,-0.1 -0.1,-0.2 -0.2,-0.2 h -1.4 c -0.1,0 -0.2,0.1 -0.2,0.2 v 0.1 h -3 c -0.5,0 -0.8,0.4 -0.8,0.8 v 13.6 c 0,0.1 0,0.3 0.1,0.4 -0.6,0.4 -1,1 -1,1.7 0,1.1 0.9,2 2,2 1.1,0 2,-0.9 2,-2 0,-0.5 -0.2,-1 -0.5,-1.3 h 3.9 c -0.3,0.4 -0.5,0.8 -0.5,1.4 0,1.1 0.9,2 2,2 1.2,0.1 2.1,-0.8 2.1,-1.9 z m -9,0.5 c -0.3,0 -0.6,-0.3 -0.6,-0.6 0,-0.3 0.3,-0.6 0.6,-0.6 0.3,0 0.6,0.3 0.6,0.6 0,0.3 -0.3,0.6 -0.6,0.6 z m 6.4,-0.5 c 0,-0.3 0.3,-0.6 0.6,-0.6 0.3,0 0.6,0.3 0.6,0.6 0,0.3 -0.3,0.6 -0.6,0.6 -0.3,0 -0.6,-0.3 -0.6,-0.6 z"
   id="path197"
   inkscape:connector-curvature="0"
   style="fill:#91298c" />
		<path
   class="st1"
   d="M 77.2,77.6 78.8,77 C 78.9,76.9 79,76.8 79,76.7 l -1.6,-4.4 c 0,0 0,-0.1 0,-0.1 -0.4,0.6 -1,0.9 -1.7,0.9 -0.1,0 -0.2,0 -0.3,0 l 1.6,4.3 c -0.1,0.1 0.1,0.2 0.2,0.2 z"
   id="path199"
   inkscape:connector-curvature="0"
   style="fill:#91298c" />
		<path
   class="st1"
   d="m 60.9,83.1 c -0.4,0.3 -0.7,0.8 -0.9,1.3 l 5.6,2.1 c 0.4,-1 0.2,-2.1 -0.5,-3 -1.1,-1.3 -3,-1.5 -4.2,-0.4 z"
   id="path201"
   inkscape:connector-curvature="0"
   style="fill:#91298c" />
		<path
   class="st1"
   d="M 66.6,77.8 65,77.2 c -0.1,-0.1 -0.3,0 -0.3,0.2 l -1.6,4.4 c -0.1,0.1 0,0.3 0.2,0.3 l 1.6,0.6 c 0.1,0.1 0.3,0 0.3,-0.2 l 1.6,-4.4 c 0,-0.1 -0.1,-0.3 -0.2,-0.3 z"
   id="path203"
   inkscape:connector-curvature="0"
   style="fill:#91298c" />
		<path
   class="st1"
   d="m 66.6,72.2 c 0,0 -0.1,0 0,0 l -1.7,4.5 c -0.1,0.1 0,0.3 0.2,0.3 l 1.6,0.6 c 0.1,0.1 0.3,0 0.3,-0.2 l 1.6,-4.3 c -0.1,0 -0.2,0 -0.3,0 -0.7,0 -1.4,-0.4 -1.7,-0.9 z"
   id="path205"
   inkscape:connector-curvature="0"
   style="fill:#91298c" />
		<circle
   class="st1"
   cx="64.800003"
   cy="59.599998"
   r="2"
   id="circle207"
   style="fill:#91298c" />
		<path
   class="st1"
   d="m 62.3,59.5 c 0,-0.7 0.3,-1.3 0.9,-1.7 L 59.8,57 c -0.5,-0.1 -1,0.2 -1.1,0.7 l -0.2,0.7 c -0.1,0.5 0.2,1 0.7,1.1 l 3.2,0.8 c -0.1,-0.2 -0.1,-0.5 -0.1,-0.8 z"
   id="path209"
   inkscape:connector-curvature="0"
   style="fill:#91298c" />
		<path
   class="st1"
   d="m 63.9,57.6 2.6,-1.2 C 67,56.2 67.2,55.6 67,55.2 l -0.3,-0.6 c -0.2,-0.5 -0.8,-0.7 -1.2,-0.5 l -5.6,2.6 c 0,0 0,0 0,0 z"
   id="path211"
   inkscape:connector-curvature="0"
   style="fill:#91298c" />
		<circle
   class="st1"
   cx="79.199997"
   cy="59.599998"
   r="2"
   id="circle213"
   style="fill:#91298c" />
		<path
   class="st1"
   d="M 85.5,58.4 85.3,57.7 C 85.2,57.2 84.7,56.9 84.2,57 l -3.4,0.8 c 0.5,0.4 0.9,1 0.9,1.7 0,0.3 -0.1,0.5 -0.2,0.8 l 3.2,-0.8 c 0.6,-0.1 0.9,-0.6 0.8,-1.1 z"
   id="path215"
   inkscape:connector-curvature="0"
   style="fill:#91298c" />
		<path
   class="st1"
   d="m 77.5,56.4 2.6,1.2 4,-0.9 c 0,0 0,0 0,0 l -5.6,-2.6 c -0.5,-0.2 -1,0 -1.2,0.5 L 77,55.2 c -0.2,0.4 0.1,1 0.5,1.2 z"
   id="path217"
   inkscape:connector-curvature="0"
   style="fill:#91298c" />
	</g>
</g>
<path
   style="fill:#ffffff;stroke-width:0.15254237"
   d="M 3.4926036,38.021646 V 5.9114769 H 24.314637 45.136671 V 38.021646 70.131816 H 24.314637 3.4926036 Z M 18.215357,58.524302 c 0.162141,-0.959703 -0.177425,-1.922983 -0.95033,-2.695889 l -0.660913,-0.660913 0.499329,0.09126 0.49933,0.09126 0.81586,-2.288645 c 0.448722,-1.258754 0.785917,-2.377554 0.749322,-2.486223 -0.03659,-0.108668 0.01575,-0.266223 0.116323,-0.350121 0.159773,-0.133284 1.750698,-4.264319 1.750698,-4.545906 0,-0.05865 -0.22498,-0.106636 -0.499956,-0.106636 -0.470842,0 -1.123709,-0.323067 -1.360394,-0.673182 -0.05836,-0.08633 -0.148572,-0.114506 -0.200468,-0.06261 -0.198615,0.198615 -1.749737,4.482144 -1.685239,4.653902 0.03735,0.09945 0.01222,0.202419 -0.05584,0.228814 -0.135205,0.05244 -1.914438,4.842469 -1.822448,4.906377 0.0311,0.02161 0.228163,0.121514 0.437909,0.22201 0.349655,0.167533 0.330634,0.176055 -0.228814,0.102536 -1.156343,-0.151963 -2.405207,0.472218 -2.975681,1.487239 l -0.322448,0.573718 0.352455,0.153325 c 0.788877,0.343178 5.093874,1.955284 5.258537,1.96918 0.0975,0.0082 0.224746,-0.266046 0.282772,-0.609501 z m 15.440696,-0.460306 c 1.688458,-0.625768 2.630198,-1.051291 2.631356,-1.188968 0.0031,-0.373985 -0.756662,-1.226371 -1.373836,-1.54123 -0.380395,-0.194063 -0.914051,-0.307167 -1.478452,-0.313347 -0.655198,-0.0072 -0.798623,-0.04379 -0.555585,-0.141852 0.180186,-0.0727 0.368793,-0.198815 0.419124,-0.280253 0.13048,-0.211123 -1.424485,-4.47913 -1.73338,-4.757709 -0.141399,-0.127521 -0.227429,-0.320835 -0.191178,-0.429587 0.08461,-0.253841 -1.487539,-4.601268 -1.663949,-4.601268 -0.07304,0 -0.132804,0.06688 -0.132804,0.148625 0,0.231852 -0.849827,0.614087 -1.365306,0.614087 -0.255861,0 -0.465202,0.03331 -0.465202,0.07402 0,0.257938 1.60724,4.454693 1.753445,4.578518 0.09906,0.0839 0.151664,0.236972 0.116895,0.340162 -0.03477,0.10319 0.302426,1.217653 0.749323,2.476582 0.724787,2.041758 0.850157,2.289203 1.160845,2.291194 0.331329,0.0021 0.323609,0.02693 -0.158379,0.508915 -0.278675,0.278676 -0.589861,0.78431 -0.691525,1.12363 -0.309699,1.033682 -0.205821,2.280304 0.178063,2.136905 0.09405,-0.03513 1.354292,-0.502423 2.800545,-1.038428 z M 28.601879,45.19426 c 1.277446,-0.53375 1.662462,-1.952028 0.82049,-3.022422 -0.307482,-0.390901 -0.31397,-0.553757 -0.305573,-7.671004 0.0062,-5.233848 -0.0402,-7.330395 -0.165467,-7.481338 -0.129002,-0.155438 -0.623233,-0.209714 -1.909606,-0.209714 -1.441025,0 -1.73556,-0.03883 -1.73556,-0.228814 0,-0.177966 -0.20339,-0.228813 -0.915254,-0.228813 -0.508474,0 -0.915255,0.0678 -0.915255,0.152542 0,0.09239 -0.657384,0.152543 -1.66707,0.152543 -1.312128,0 -1.718107,0.05104 -1.906779,0.239709 -0.211136,0.211136 -0.23971,1.096589 -0.23971,7.428094 v 7.188384 l -0.398787,0.416243 c -1.124413,1.173636 -0.145423,3.337739 1.509915,3.337739 1.420828,0 2.506852,-1.654403 1.893336,-2.884225 l -0.235318,-0.471707 h 1.806546 1.806545 l -0.23551,0.599552 c -0.692803,1.763701 1.030813,3.419544 2.793057,2.683231 z M 18.061959,34.064725 c 0.967769,-0.40436 1.448002,-1.837234 0.94736,-2.826635 -0.274987,-0.543444 -1.135327,-1.070309 -1.772325,-1.085354 -0.527686,-0.01246 -0.503504,-0.03515 0.609824,-0.572034 1.422165,-0.685818 1.662735,-0.87901 1.662735,-1.335271 0,-0.581122 -0.475225,-1.405925 -0.915003,-1.588088 -0.366126,-0.151654 -0.702856,-0.03215 -3.21515,1.141051 -1.543406,0.720744 -2.862929,1.367181 -2.932273,1.436525 -0.107376,0.107377 1.455773,0.532277 3.210731,0.87275 0.594964,0.115427 0.610487,0.202172 0.118833,0.664056 -1.065731,1.001203 -0.70058,2.789912 0.682092,3.341259 0.544484,0.217115 1.00093,0.203374 1.603176,-0.04826 z m 14.316712,0.0093 c 1.399474,-0.584738 1.682567,-2.367098 0.544386,-3.427475 -0.191911,-0.178792 -0.319603,-0.350715 -0.28376,-0.38205 0.03585,-0.03133 0.883088,-0.237902 1.882765,-0.459036 1.713008,-0.378928 2.058318,-0.488188 1.906983,-0.603394 -0.116833,-0.08894 -5.091239,-2.369398 -5.53754,-2.538619 -0.555341,-0.210567 -1.064953,0.08582 -1.417032,0.824137 -0.435975,0.914249 -0.220396,1.232289 1.35504,1.999071 1.306887,0.636074 1.359203,0.67905 0.826647,0.67905 -2.144386,0 -2.895661,2.920238 -0.992482,3.85781 0.632447,0.311565 1.060051,0.324158 1.714993,0.05051 z M 14.812633,32.071321 c 0.05072,-0.611681 0.168853,-0.945729 0.434383,-1.228374 0.463816,-0.493709 0.408437,-0.527055 -1.62481,-0.978359 -2.027036,-0.449925 -2.318919,-0.377042 -2.640793,0.659418 -0.201395,0.648506 -0.202095,0.785286 -0.0058,1.135002 0.187719,0.334444 0.477502,0.463257 1.823481,0.810567 0.880162,0.227113 1.677599,0.419451 1.772083,0.427418 0.100779,0.0085 0.200587,-0.332796 0.241461,-0.825672 z m 20.972448,0.433678 c 1.942696,-0.486794 2.259242,-0.727814 2.117778,-1.612486 -0.224941,-1.406709 -0.579181,-1.528365 -2.87323,-0.986752 -0.919473,0.217083 -1.702047,0.424975 -1.739055,0.461983 -0.03701,0.03701 0.113952,0.33275 0.335468,0.657205 0.324991,0.47602 0.388969,0.715089 0.331362,1.238223 -0.03927,0.356568 -0.0091,0.648305 0.06706,0.648305 0.07615,0 0.868425,-0.182915 1.760621,-0.406478 z m -9.713265,-6.764515 c 1.158838,-0.591194 1.829558,-1.752629 1.824217,-3.158853 -0.0043,-1.121678 -0.382362,-1.962728 -1.195113,-2.658413 -1.108514,-0.948848 -2.458362,-1.140693 -3.760274,-0.534423 -1.465699,0.682542 -2.137661,1.850065 -2.030789,3.528463 0.127818,2.007335 1.80441,3.397603 3.846401,3.189523 0.41069,-0.04185 1.00269,-0.206682 1.315558,-0.366297 z"
   id="path177"
   inkscape:connector-curvature="0" /><path
   style="fill:#ffffff;stroke-width:0.15254237"
   d="m 23.498042,82.630474 c -3.263133,-0.649598 -4.51962,-4.79089 -2.18777,-7.210737 0.946097,-0.9818 1.591274,-1.241888 3.080637,-1.241888 1.454301,0 2.155121,0.268149 3.056427,1.169455 1.24309,1.243091 1.601484,3.406181 0.823145,4.968104 -0.868872,1.743599 -2.839978,2.699765 -4.772439,2.315066 z"
   id="path179"
   inkscape:connector-curvature="0" /><path
   style="fill:#ffffff;stroke-width:0.15254237"
   d="m 20.503456,43.686316 c -0.378134,-0.276498 -0.176895,-0.859585 0.296666,-0.859585 0.319556,0 0.539939,0.25195 0.539939,0.617278 0,0.282461 -0.559913,0.444629 -0.836605,0.242307 z"
   id="path181"
   inkscape:connector-curvature="0" /><path
   style="fill:#ffffff;stroke-width:0.15254237"
   d="m 27.360086,43.572433 c -0.149984,-0.472557 0.249601,-0.829839 0.674043,-0.602684 0.361769,0.193613 0.413506,0.468052 0.13983,0.741728 -0.286184,0.286184 -0.701426,0.215244 -0.813873,-0.139044 z"
   id="path183"
   inkscape:connector-curvature="0" /><path
   style="fill:#ffffff;stroke-width:0.15254237"
   d="m 22.615563,23.225036 c -0.122122,-0.318245 0.05827,-0.724705 0.288138,-0.649226 0.299697,0.09841 0.338233,0.87804 0.0434,0.87804 -0.134054,0 -0.283245,-0.102966 -0.331538,-0.228814 z"
   id="path185"
   inkscape:connector-curvature="0" /><path
   style="fill:#ffffff;stroke-width:0.15254237"
   d="m 25.639251,23.034358 c 0.02873,-0.249734 0.140863,-0.419491 0.277081,-0.419491 0.136219,0 0.248347,0.169757 0.277082,0.419491 0.0393,0.341593 -0.01215,0.419492 -0.277082,0.419492 -0.264932,0 -0.316386,-0.0779 -0.277081,-0.419492 z"
   id="path187"
   inkscape:connector-curvature="0" /></svg>