<?xml version="1.0" encoding="UTF-8" standalone="no"?>
<!-- Generator: Adobe Illustrator 21.1.0, SVG Export Plug-In . SVG Version: 6.00 Build 0)  -->

<svg
   xmlns:dc="http://purl.org/dc/elements/1.1/"
   xmlns:cc="http://creativecommons.org/ns#"
   xmlns:rdf="http://www.w3.org/1999/02/22-rdf-syntax-ns#"
   xmlns:svg="http://www.w3.org/2000/svg"
   xmlns="http://www.w3.org/2000/svg"
   xmlns:sodipodi="http://sodipodi.sourceforge.net/DTD/sodipodi-0.dtd"
   xmlns:inkscape="http://www.inkscape.org/namespaces/inkscape"
   version="1.1"
   id="Layer_1"
   x="0px"
   y="0px"
   viewBox="0 0 48.900002 89.400002"
   xml:space="preserve"
   sodipodi:docname="Phone-Yacht-02-idcc.svg"
   width="48.900002"
   height="89.400002"
   inkscape:version="0.92.3 (unknown)"><metadata
   id="metadata1580"><rdf:RDF><cc:Work
       rdf:about=""><dc:format>image/svg+xml</dc:format><dc:type
         rdf:resource="http://purl.org/dc/dcmitype/StillImage" /><dc:title></dc:title></cc:Work></rdf:RDF></metadata><defs
   id="defs1578" /><sodipodi:namedview
   pagecolor="#ffffff"
   bordercolor="#666666"
   borderopacity="1"
   objecttolerance="10"
   gridtolerance="10"
   guidetolerance="10"
   inkscape:pageopacity="0"
   inkscape:pageshadow="2"
   inkscape:window-width="1920"
   inkscape:window-height="1017"
   id="namedview1576"
   showgrid="false"
   inkscape:pagecheckerboard="true"
   fit-margin-top="0"
   fit-margin-left="0"
   fit-margin-right="0"
   fit-margin-bottom="0"
   inkscape:zoom="9.2709556"
   inkscape:cx="64.897569"
   inkscape:cy="41.595727"
   inkscape:window-x="1920"
   inkscape:window-y="31"
   inkscape:window-maximized="0"
   inkscape:current-layer="Layer_1" />
<style
   type="text/css"
   id="style1563">
	.st0{fill:#91298C;}
</style>
<g
   id="g1573"
   transform="translate(-47.6,-27.3)">
	<path
   class="st0"
   d="M 92.7,27.3 H 51.3 c -2,0 -3.7,1.7 -3.7,3.7 v 82 c 0,2 1.7,3.7 3.7,3.7 h 41.5 c 2,0 3.7,-1.7 3.7,-3.7 V 31 c -0.1,-2.1 -1.7,-3.7 -3.8,-3.7 z m -20.7,83 c -2.5,0 -4.5,-2 -4.5,-4.5 0,-2.5 2,-4.5 4.5,-4.5 2.5,0 4.5,2 4.5,4.5 0,2.5 -2,4.5 -4.5,4.5 z M 92.9,97.7 H 51.1 V 33.2 H 93 v 64.5 z"
   id="path1565"
   inkscape:connector-curvature="0"
   style="fill:#91298c" />
	<g
   id="g1571">
		<path
   class="st0"
   d="m 61.7,67.3 2.3,-4.6 -4.7,0.9 c 0,0 -1,-0.4 0,-0.9 1,-0.5 4.7,-1.9 4.7,-1.9 l -2.6,-4.2 c 0,0 1,-0.4 1.7,0 0.8,0.4 3.5,3.4 3.5,3.4 0,0 5.2,-2.1 9.2,-1.5 0,0 1.6,0.8 1.7,2.1 0,0 -8.8,0.5 -8.8,1.3 l 1.4,1.4 c 0,0 9.6,-1.5 15.3,1.3 0.1,-0.1 -14.5,0.4 -23.7,2.7 z"
   id="path1567"
   inkscape:connector-curvature="0"
   style="fill:#91298c" />
		<path
   class="st0"
   d="m 60.4,68.8 c -6.3,1 -7.1,6.1 -7.1,6.1 h 29.8 l 7.5,-9.2 c -15,0.4 -23.9,2.1 -30.2,3.1 z m 1.9,3.9 c -0.5,0 -0.9,-0.4 -0.9,-0.9 0,-0.5 0.4,-0.9 0.9,-0.9 0.5,0 0.9,0.4 0.9,0.9 0,0.5 -0.4,0.9 -0.9,0.9 z m 4.8,-0.4 c -0.5,0 -0.9,-0.4 -0.9,-0.9 0,-0.5 0.4,-0.9 0.9,-0.9 0.5,0 0.9,0.4 0.9,0.9 0.1,0.5 -0.4,0.9 -0.9,0.9 z M 72,72.2 c -0.5,0 -0.9,-0.4 -0.9,-0.9 0,-0.5 0.4,-0.9 0.9,-0.9 0.5,0 0.9,0.4 0.9,0.9 0,0.5 -0.4,0.9 -0.9,0.9 z"
   id="path1569"
   inkscape:connector-curvature="0"
   style="fill:#91298c" />
	</g>
</g>
<path
   style="fill:#ffffff;stroke-width:0.10786375"
   d="m 23.222269,82.785372 c -0.697817,-0.195629 -1.032637,-0.365866 -1.584779,-0.805767 -1.633383,-1.301344 -2.131242,-3.569165 -1.198058,-5.457334 1.357109,-2.745924 5.062908,-3.301395 7.168946,-1.07457 0.827746,0.875219 1.125358,1.598749 1.176593,2.86044 0.03447,0.848848 0.0025,1.128468 -0.186137,1.629313 -0.685347,1.819394 -2.111328,2.877855 -3.999161,2.968451 -0.50149,0.02407 -1.025033,-0.02175 -1.377404,-0.120533 z"
   id="path425"
   inkscape:connector-curvature="0" /><path
   style="fill:#ffffff;stroke-width:0.10786375"
   d="M 3.5662429,38.128896 V 5.9315681 H 24.437878 45.309512 V 38.128896 70.326224 H 24.437878 3.5662429 Z M 38.977907,43.41422 c 1.888997,-2.313678 3.587154,-4.396727 3.773684,-4.629 l 0.339146,-0.422314 -2.369219,0.07322 c -8.093438,0.250116 -15.773993,1.046058 -25.674375,2.660656 -3.460154,0.564297 -4.382381,0.814874 -5.687443,1.545324 -1.6873341,0.94441 -3.351683,3.081151 -3.5975347,4.618623 l -0.066341,0.414874 14.9237727,-0.02735 14.923773,-0.02735 z M 15.66394,39.693305 c 4.755394,-1.044767 12.112097,-1.900202 19.560312,-2.274466 1.364477,-0.06856 2.498248,-0.140295 2.519491,-0.159404 0.05878,-0.05287 -0.687616,-0.353912 -1.732143,-0.69861 -1.208974,-0.398967 -2.807239,-0.703936 -4.536115,-0.86555 -1.620109,-0.151446 -6.410756,-0.08014 -7.938097,0.118159 l -1.008355,0.130915 -0.689356,-0.683228 c -0.379146,-0.375776 -0.648551,-0.724035 -0.598678,-0.773908 0.275728,-0.275727 3.041251,-0.707969 6.001336,-0.937987 2.632841,-0.20459 2.642662,-0.206305 2.642662,-0.461245 0,-0.39378 -0.517376,-1.126769 -1.094195,-1.550193 -0.557504,-0.409247 -0.558503,-0.409497 -1.80875,-0.454073 -1.929539,-0.0688 -5.0003,0.482068 -7.236247,1.29811 l -0.701115,0.255882 -1.377086,-1.425169 c -1.719762,-1.779809 -2.164002,-2.090861 -2.982922,-2.088613 -0.330948,8.63e-4 -0.667409,0.04328 -0.74769,0.09415 -0.181384,0.114937 -0.20819,0.06327 1.254552,2.418202 0.619369,0.99715 1.108702,1.825815 1.087407,1.841479 -0.02129,0.01566 -0.993959,0.406915 -2.161475,0.869447 -2.862495,1.134027 -3.171505,1.339831 -2.707866,1.803471 0.214779,0.214778 0.217517,0.21453 2.481932,-0.224711 1.246805,-0.241848 2.297671,-0.439726 2.335261,-0.439726 0.03759,0 -0.441755,1.019313 -1.065207,2.265139 -0.623453,1.245826 -1.096476,2.265139 -1.051163,2.265139 0.04531,0 0.744392,-0.145444 1.553507,-0.323207 z"
   id="path427"
   inkscape:connector-curvature="0" /><path
   style="fill:#ffffff;stroke-width:0.10786375"
   d="m 14.078103,45.080743 c -0.289805,-0.320231 -0.264257,-0.941241 0.04916,-1.195034 0.561769,-0.454893 1.411852,-0.08022 1.411852,0.622264 0,0.688989 -1.000777,1.081329 -1.461016,0.57277 z"
   id="path429"
   inkscape:connector-curvature="0" /><path
   style="fill:#ffffff;stroke-width:0.10786375"
   d="m 19.132639,44.869627 c -0.776634,-0.312913 -0.476455,-1.617203 0.372196,-1.617203 0.874228,0 1.166592,1.250308 0.376537,1.61028 -0.296325,0.135015 -0.427798,0.136231 -0.748733,0.0069 z"
   id="path431"
   inkscape:connector-curvature="0" /><path
   style="fill:#ffffff;stroke-width:0.10786375"
   d="m 23.848949,44.567705 c -0.354338,-0.354337 -0.397746,-0.551164 -0.202431,-0.917883 0.299609,-0.562537 0.904605,-0.671482 1.335581,-0.240505 0.500439,0.500439 0.247385,1.282987 -0.459002,1.419425 -0.289766,0.05597 -0.399717,0.0134 -0.674148,-0.261037 z"
   id="path433"
   inkscape:connector-curvature="0" /></svg>