<?xml version="1.0" encoding="UTF-8" standalone="no"?>
<!-- Generator: Adobe Illustrator 21.1.0, SVG Export Plug-In . SVG Version: 6.00 Build 0)  -->

<svg
   xmlns:dc="http://purl.org/dc/elements/1.1/"
   xmlns:cc="http://creativecommons.org/ns#"
   xmlns:rdf="http://www.w3.org/1999/02/22-rdf-syntax-ns#"
   xmlns:svg="http://www.w3.org/2000/svg"
   xmlns="http://www.w3.org/2000/svg"
   xmlns:sodipodi="http://sodipodi.sourceforge.net/DTD/sodipodi-0.dtd"
   xmlns:inkscape="http://www.inkscape.org/namespaces/inkscape"
   version="1.1"
   id="Layer_1"
   x="0px"
   y="0px"
   viewBox="0 0 48.799999 89.199997"
   xml:space="preserve"
   sodipodi:docname="Phone-Skier-02-idcc.svg"
   width="48.799999"
   height="89.199997"
   inkscape:version="0.92.3 (unknown)"><metadata
   id="metadata486"><rdf:RDF><cc:Work
       rdf:about=""><dc:format>image/svg+xml</dc:format><dc:type
         rdf:resource="http://purl.org/dc/dcmitype/StillImage" /><dc:title></dc:title></cc:Work></rdf:RDF></metadata><defs
   id="defs484" /><sodipodi:namedview
   pagecolor="#ffffff"
   bordercolor="#666666"
   borderopacity="1"
   objecttolerance="10"
   gridtolerance="10"
   guidetolerance="10"
   inkscape:pageopacity="0"
   inkscape:pageshadow="2"
   inkscape:window-width="1920"
   inkscape:window-height="1017"
   id="namedview482"
   showgrid="false"
   inkscape:pagecheckerboard="true"
   fit-margin-top="0"
   fit-margin-left="0"
   fit-margin-right="0"
   fit-margin-bottom="0"
   inkscape:zoom="5.8263889"
   inkscape:cx="24.4"
   inkscape:cy="44.6"
   inkscape:window-x="1920"
   inkscape:window-y="31"
   inkscape:window-maximized="0"
   inkscape:current-layer="Layer_1" />
<style
   type="text/css"
   id="style467">
	.st0{fill:#90278E;}
	.st1{fill:#90298B;}
</style>
<g
   id="g479"
   transform="translate(-47.6,-27.4)">
	<g
   id="g471">
		<path
   class="st0"
   d="M 92.7,27.4 H 51.3 c -2,0 -3.7,1.6 -3.7,3.7 v 81.8 c 0,2 1.6,3.7 3.7,3.7 h 41.4 c 2,0 3.7,-1.6 3.7,-3.7 V 31.1 c 0,-2.1 -1.7,-3.7 -3.7,-3.7 z M 72,110.2 c -2.5,0 -4.4,-2 -4.4,-4.4 0,-2.5 2,-4.4 4.4,-4.4 2.5,0 4.4,2 4.4,4.4 0,2.4 -1.9,4.4 -4.4,4.4 z M 92.9,97.6 H 51.1 V 33.3 h 41.7 v 64.3 z"
   id="path469"
   inkscape:connector-curvature="0"
   style="fill:#90278e" />
	</g>
	<g
   id="g477">
		<circle
   class="st1"
   cx="79.800003"
   cy="55.599998"
   r="3.7"
   id="circle473"
   style="fill:#90298b" />
		<path
   class="st1"
   d="m 87.6,80.7 c 0,-0.9 -1,-0.9 -1.2,-0.7 -0.4,0.2 -0.5,0.6 -0.6,1 -0.2,0.4 -0.9,0.4 -1.1,0.4 v 0 0 0 L 72.2,78.9 c 0,0 0,-0.1 0,-0.1 l 1.4,-7.1 C 73.7,71 73.4,70.3 72.9,69.9 l -1.5,-2.3 4.2,-3.5 0.2,1.4 c 0,0.3 0.2,0.5 0.4,0.7 0.1,0.2 0.3,0.3 0.5,0.4 l 4.4,1.9 c 0.6,0.3 1.3,0 1.6,-0.6 l 0.2,-0.5 c 0.3,-0.6 0,-1.3 -0.6,-1.6 l -3.6,-1.6 -0.4,-2.8 c 0.1,-0.5 0,-0.9 -0.2,-1.4 -0.1,-0.2 -0.2,-0.3 -0.3,-0.4 l -2.3,-2.8 c -0.7,-0.8 -1.9,-1 -2.8,-0.3 l -2.8,2.3 -9.6,-6.2 c 0,0 0,0 0,0 0.3,-0.5 0.3,-0.9 0.2,-1 -0.2,-0.1 -0.6,0.2 -1,0.7 0,0 -0.1,-0.1 -0.1,-0.1 -0.7,-0.4 -1.3,-0.6 -1.5,-0.4 -0.1,0.2 0.3,0.7 1,1.2 0,0 0.1,0.1 0.1,0.1 -0.3,0.5 -0.4,1 -0.2,1 0.2,0.1 0.5,-0.2 0.9,-0.6 0,0 0,0 0,0 l 9.3,6 -3.5,2.9 c -0.4,0.3 -0.6,0.8 -0.7,1.3 -0.1,0.5 0,1 0.2,1.4 l 4.5,6.8 -1.1,6.1 c 0,0 0,0.1 0,0.1 L 57.5,75.9 c -0.4,-0.1 -0.9,0.2 -1,0.6 L 56.4,77 c -0.1,0.4 0.2,0.9 0.6,1 l 27.7,5.6 c 0.1,0 0.1,0 0.2,0 0.6,0.1 1.4,-0.2 1.7,-0.5 0.6,-0.2 1.1,-1.5 1,-2.4 z"
   id="path475"
   inkscape:connector-curvature="0"
   style="fill:#90298b" />
	</g>
</g>
<path
   style="fill:#ffffff;stroke-width:0.1716329"
   d="m 22.437958,82.221347 c -1.971274,-0.982327 -2.86462,-3.437833 -2.007792,-5.518745 0.372639,-0.905 1.7165,-2.139858 2.62495,-2.412037 2.025943,-0.606987 4.099892,0.213404 5.076745,2.008205 0.613022,1.126322 0.734614,2.139094 0.395817,3.296854 -0.756096,2.583787 -3.660679,3.836165 -6.08972,2.625723 z"
   id="path351"
   inkscape:connector-curvature="0" /><path
   style="fill:#ffffff;stroke-width:0.1716329"
   d="M 3.5294398,38.04362 V 5.9482688 H 24.29702 45.064601 V 38.04362 70.138972 H 24.29702 3.5294398 Z M 38.707552,55.982687 c 0.719833,-0.372239 1.175215,-1.040255 1.306658,-1.916782 0.167047,-1.113949 -0.111464,-1.64224 -0.82927,-1.572995 -0.439542,0.0424 -0.619482,0.179754 -0.855748,0.653216 -0.165809,0.332271 -0.47566,0.646725 -0.695081,0.705408 -0.321087,0.08587 -12.735205,-2.274553 -12.913535,-2.455384 -0.02765,-0.02804 0.251912,-1.552203 0.621249,-3.387031 0.793306,-3.94105 0.827123,-4.602262 0.269797,-5.275333 -0.378813,-0.457484 -1.657868,-2.402004 -1.657868,-2.52042 0,-0.190612 3.815724,-3.195204 3.951348,-3.111384 0.09231,0.05705 0.167842,0.299652 0.167842,0.539111 0,0.997637 0.455182,1.367441 3.131123,2.543821 1.400892,0.615853 2.664786,1.119731 2.808652,1.119731 0.737658,0 1.44044,-0.91089 1.44044,-1.866981 0,-0.671634 -0.425798,-0.991149 -2.555645,-1.917728 -1.945148,-0.846228 -1.782591,-0.580058 -2.064358,-3.380192 -0.07832,-0.778358 -0.247479,-1.550706 -0.375902,-1.716329 -2.000206,-2.579585 -3.032973,-3.625312 -3.704872,-3.751361 -0.893231,-0.167572 -1.289672,0.0181 -2.920175,1.367634 L 22.3018,31.306377 17.592617,28.268948 c -4.657228,-3.003917 -4.708568,-3.043444 -4.653341,-3.58251 0.06514,-0.635818 -0.261097,-0.733623 -0.727608,-0.218134 -0.265664,0.293556 -0.342881,0.302428 -0.75604,0.08687 -0.54701,-0.285388 -1.232505,-0.317287 -1.232505,-0.05735 0,0.101659 0.229105,0.41394 0.509122,0.693958 0.411226,0.411225 0.489607,0.606703 0.407628,1.016595 -0.115932,0.579663 0.154978,0.678053 0.645265,0.234349 0.280504,-0.253852 0.623565,-0.06514 4.862144,2.674602 2.50819,1.621248 4.560346,2.968921 4.560346,2.994828 0,0.02591 -0.820551,0.728097 -1.823446,1.560424 -1.852839,1.537714 -2.295743,2.143692 -2.295743,3.141013 0,0.349176 0.69023,1.552651 2.317044,4.039953 1.274374,1.948444 2.316306,3.715924 2.315405,3.927733 -0.0021,0.4961 -0.946362,5.595325 -1.056512,5.705476 -0.04591,0.04591 -2.549139,-0.41219 -5.562723,-1.018006 -4.854938,-0.975982 -5.5215468,-1.074277 -5.8505048,-0.862686 -0.714942,0.45986 -0.6678288,1.813875 0.07072,2.032462 0.1652967,0.04892 4.7415408,0.984613 10.1694308,2.079315 5.427891,1.0947 11.490823,2.326992 13.473183,2.738427 3.929629,0.815586 4.995039,0.913243 5.74307,0.52642 z M 33.924713,31.511114 c 2.258225,-1.144134 2.718109,-4.125782 0.914892,-5.931694 -0.865974,-0.867268 -1.685591,-1.155974 -3.009814,-1.060187 -1.35296,0.09786 -2.298115,0.74495 -2.941591,2.013913 -0.719641,1.419167 -0.570955,2.829015 0.425895,4.038368 1.142058,1.385513 2.988005,1.7617 4.610618,0.9396 z"
   id="path353"
   inkscape:connector-curvature="0" /></svg>