<?xml version="1.0" encoding="UTF-8" standalone="no"?>
<!-- Generator: Adobe Illustrator 21.1.0, SVG Export Plug-In . SVG Version: 6.00 Build 0)  -->

<svg
   xmlns:dc="http://purl.org/dc/elements/1.1/"
   xmlns:cc="http://creativecommons.org/ns#"
   xmlns:rdf="http://www.w3.org/1999/02/22-rdf-syntax-ns#"
   xmlns:svg="http://www.w3.org/2000/svg"
   xmlns="http://www.w3.org/2000/svg"
   xmlns:sodipodi="http://sodipodi.sourceforge.net/DTD/sodipodi-0.dtd"
   xmlns:inkscape="http://www.inkscape.org/namespaces/inkscape"
   version="1.1"
   id="Layer_1"
   x="0px"
   y="0px"
   viewBox="0 0 49.299999 90.300003"
   xml:space="preserve"
   sodipodi:docname="Phone-Plane-02-idcc.svg"
   width="49.299999"
   height="90.300003"
   inkscape:version="0.92.3 (unknown)"><metadata
   id="metadata1075"><rdf:RDF><cc:Work
       rdf:about=""><dc:format>image/svg+xml</dc:format><dc:type
         rdf:resource="http://purl.org/dc/dcmitype/StillImage" /><dc:title></dc:title></cc:Work></rdf:RDF></metadata><defs
   id="defs1073" /><sodipodi:namedview
   pagecolor="#ffffff"
   bordercolor="#666666"
   borderopacity="1"
   objecttolerance="10"
   gridtolerance="10"
   guidetolerance="10"
   inkscape:pageopacity="0"
   inkscape:pageshadow="2"
   inkscape:window-width="1920"
   inkscape:window-height="1017"
   id="namedview1071"
   showgrid="false"
   fit-margin-top="0"
   fit-margin-left="0"
   fit-margin-right="0"
   fit-margin-bottom="0"
   inkscape:pagecheckerboard="true"
   inkscape:zoom="6.5555556"
   inkscape:cx="31.275451"
   inkscape:cy="37.031625"
   inkscape:window-x="1920"
   inkscape:window-y="31"
   inkscape:window-maximized="0"
   inkscape:current-layer="Layer_1" />
<style
   type="text/css"
   id="style1044">
	.st0{fill:#92278F;}
	.st1{fill:#91298C;}
	.st2{fill:#90278E;}
	.st3{fill:#90298B;}
</style>
<g
   id="g1068"
   transform="translate(-47.4,-26.8)">
	<g
   id="g1048">
		<path
   class="st2"
   d="M 92.9,26.8 H 51.1 c -2.1,0 -3.7,1.7 -3.7,3.7 v 82.9 c 0,2.1 1.7,3.7 3.7,3.7 H 93 c 2.1,0 3.7,-1.7 3.7,-3.7 V 30.6 c 0,-2.1 -1.7,-3.8 -3.8,-3.8 z M 72,110.7 c -2.5,0 -4.5,-2 -4.5,-4.5 0,-2.5 2,-4.5 4.5,-4.5 2.5,0 4.5,2 4.5,4.5 0,2.5 -2,4.5 -4.5,4.5 z M 93.1,97.9 H 50.9 V 32.8 h 42.3 v 65.1 z"
   id="path1046"
   inkscape:connector-curvature="0"
   style="fill:#90278e" />
	</g>
	<g
   id="g1066">
		<path
   class="st3"
   d="m 80.8,56.4 c -0.2,-0.2 -0.6,-0.1 -1,0.2 l 0.8,0.8 c 0.3,-0.3 0.4,-0.8 0.2,-1 z"
   id="path1050"
   inkscape:connector-curvature="0"
   style="fill:#90298b" />
		<path
   class="st3"
   d="M 79.8,56.3 80.1,56.1 77,52 76.9,52.2 c -0.2,0.3 -0.2,0.6 0.1,0.9 z"
   id="path1052"
   inkscape:connector-curvature="0"
   style="fill:#90298b" />
		<path
   class="st3"
   d="M 80.8,57.3 81,57 l 4.1,3.2 -0.2,0.1 c -0.3,0.2 -0.6,0.2 -0.9,-0.1 z"
   id="path1054"
   inkscape:connector-curvature="0"
   style="fill:#90298b" />
		<path
   class="st3"
   d="M 86.1,77.2 88.3,75 76.7,63.5 c 0,0 4.2,-3.6 3.7,-5.3 L 79.8,57.3 79,56.7 c -1.7,-0.5 -5.3,3.7 -5.3,3.7 L 62.2,49 60,51.1 l 9.4,13.8 -6.7,8.3 -5.3,-2.3 -1.6,1.6 3.7,3.7 -0.5,2 2.1,-0.5 3.7,3.7 1.6,-1.6 -2.4,-5.3 8.3,-6.7 z M 73,64.1 c -0.6,-0.6 -0.2,-1.8 0.7,-2.8 1,-1 1.6,-0.7 2.2,-0.1 0.6,0.6 0.9,1.2 -0.1,2.2 -0.9,1 -2.2,1.3 -2.8,0.7 z"
   id="path1056"
   inkscape:connector-curvature="0"
   style="fill:#90298b" />
		<ellipse
   transform="matrix(0.7071,-0.7071,0.7071,0.7071,-20.5651,65.7098)"
   class="st3"
   cx="69"
   cy="57.700001"
   rx="2.4000001"
   ry="1.2"
   id="ellipse1058"
   style="fill:#90298b" />
		<ellipse
   transform="matrix(0.7071,-0.7071,0.7071,0.7071,-19.1595,62.3146)"
   class="st3"
   cx="65.599998"
   cy="54.299999"
   rx="2.4000001"
   ry="1.2"
   id="ellipse1060"
   style="fill:#90298b" />
		<ellipse
   transform="matrix(0.7071,-0.7071,0.7071,0.7071,-24.8878,76.1437)"
   class="st3"
   cx="79.5"
   cy="68.099998"
   rx="2.4000001"
   ry="1.2"
   id="ellipse1062"
   style="fill:#90298b" />
		<ellipse
   transform="matrix(0.7071,-0.7071,0.7071,0.7071,-26.2935,79.5393)"
   class="st3"
   cx="82.900002"
   cy="71.5"
   rx="2.4000001"
   ry="1.2"
   id="ellipse1064"
   style="fill:#90298b" />
	</g>
</g>
<path
   style="fill:#ffffff;stroke-width:0.15254237"
   d="m 23.761785,83.735775 c -0.958476,-0.183201 -1.778306,-0.662724 -2.46308,-1.440668 -2.52556,-2.869188 -0.47251,-7.302484 3.370919,-7.279061 2.475663,0.01509 4.294183,1.871152 4.294183,4.38284 0,2.816033 -2.454219,4.862098 -5.202022,4.336889 z"
   id="path273"
   inkscape:connector-curvature="0" /><path
   style="fill:#ffffff;stroke-width:0.15254237"
   d="M 3.5737562,38.593802 V 6.1022764 H 24.624604 45.675451 V 38.593802 71.085327 H 24.624604 3.5737562 Z M 18.25072,53.891909 c 0.401398,-0.395363 0.729816,-0.799826 0.729816,-0.898806 0,-0.09898 -0.516784,-1.32948 -1.148408,-2.734446 -0.631624,-1.404964 -1.129294,-2.568896 -1.105932,-2.586516 0.02336,-0.01762 1.842244,-1.483978 4.041959,-3.258576 2.199716,-1.774599 4.06559,-3.226543 4.146386,-3.226543 0.0808,0 3.221422,2.095069 6.979169,4.655711 l 6.832267,4.655709 1.146706,-1.146706 1.146705,-1.146705 -1.859917,-1.869175 -1.859917,-1.869173 0.08572,-0.620988 c 0.118329,-0.857157 -0.218083,-1.192803 -1.077585,-1.075137 -0.594698,0.08141 -0.668322,0.04373 -1.579758,-0.808575 -0.888576,-0.830932 -0.94503,-0.922791 -0.800597,-1.30268 0.349905,-0.92032 -0.190808,-1.454836 -1.256162,-1.241765 -0.452486,0.0905 -0.575968,0.0059 -1.864737,-1.277509 l -1.380163,-1.374423 1.161431,-1.199475 c 1.324685,-1.368077 2.08801,-2.415207 2.381418,-3.26683 0.177109,-0.514063 0.170199,-0.658341 -0.05418,-1.131187 -0.351116,-0.739924 -1.370301,-1.468198 -1.879378,-1.342936 -0.898548,0.221093 -1.821141,0.846111 -3.241911,2.196259 l -1.51123,1.436109 -1.422119,-1.416207 c -1.387249,-1.381481 -1.420177,-1.430684 -1.342921,-2.006684 0.111137,-0.828581 -0.152673,-1.103435 -0.970605,-1.011243 -0.616754,0.06952 -0.67544,0.03713 -1.572049,-0.867519 -0.837631,-0.845144 -0.921908,-0.987091 -0.837277,-1.410242 0.05252,-0.262609 0.0133,-0.621488 -0.08877,-0.812198 -0.160113,-0.299175 -0.274376,-0.332896 -0.91835,-0.271019 l -0.735485,0.07067 -1.794396,-1.799083 -1.794396,-1.799083 -1.078018,1.011656 c -0.592909,0.556412 -1.097762,1.058298 -1.121894,1.115303 -0.02413,0.057 1.868882,2.9103 4.2067,6.340656 2.337818,3.430356 4.439771,6.523615 4.671007,6.873908 l 0.420428,0.6369 -3.309758,4.101908 -3.309758,4.101911 -2.655165,-1.145841 -2.6551659,-1.14584 -0.8374458,0.827043 -0.8374458,0.827043 1.8625315,1.867014 1.862532,1.867015 -0.238517,0.996872 c -0.26954,1.12653 -0.315314,1.091709 1.016477,0.773256 l 0.915254,-0.218854 1.82973,1.822932 c 1.006352,1.00261 1.862045,1.82293 1.90154,1.82293 0.0395,0 0.400227,-0.323479 0.801626,-0.718842 z M 37.586288,33.565862 c 0.123417,-0.07805 0.192061,-0.17257 0.152542,-0.210039 -0.403527,-0.382598 -4.051201,-3.151852 -4.151631,-3.151852 -0.07323,0 -0.09455,-0.06245 -0.04737,-0.138777 0.161277,-0.260951 -0.100005,-0.623935 -0.44912,-0.623935 -0.191793,0 -0.389367,-0.105936 -0.439052,-0.235414 -0.186416,-0.485792 -3.022377,-4.035716 -3.157389,-3.952272 -0.07747,0.04788 -0.138623,0.271768 -0.135905,0.497537 0.0036,0.299123 0.417446,0.878282 1.525424,2.134769 0.836265,0.948355 1.520482,1.811601 1.520482,1.918326 0,0.249086 0.730435,0.940517 0.858395,0.812557 0.05329,-0.05329 0.875689,0.621442 1.827558,1.499398 1.67836,1.548035 2.02356,1.748526 2.49607,1.449702 z"
   id="path275"
   inkscape:connector-curvature="0" /><path
   style="fill:#ffffff;stroke-width:0.15254237"
   d="m 25.71011,37.23863 c -0.177537,-0.177537 -0.32215,-0.511566 -0.321363,-0.742286 0.0021,-0.62677 0.821971,-1.939536 1.455949,-2.331356 0.530699,-0.32799 0.576941,-0.332056 1.075054,-0.09452 0.622718,0.296954 1.165692,1.113393 1.029665,1.548249 -0.414798,1.326045 -2.493604,2.365617 -3.239305,1.619916 z"
   id="path277"
   inkscape:connector-curvature="0" /></svg>