<?xml version="1.0" encoding="UTF-8" standalone="no"?>
<!-- Generator: Adobe Illustrator 21.1.0, SVG Export Plug-In . SVG Version: 6.00 Build 0)  -->

<svg
   xmlns:dc="http://purl.org/dc/elements/1.1/"
   xmlns:cc="http://creativecommons.org/ns#"
   xmlns:rdf="http://www.w3.org/1999/02/22-rdf-syntax-ns#"
   xmlns:svg="http://www.w3.org/2000/svg"
   xmlns="http://www.w3.org/2000/svg"
   xmlns:sodipodi="http://sodipodi.sourceforge.net/DTD/sodipodi-0.dtd"
   xmlns:inkscape="http://www.inkscape.org/namespaces/inkscape"
   version="1.1"
   id="Layer_1"
   x="0px"
   y="0px"
   viewBox="0 0 108.2042 91.900002"
   xml:space="preserve"
   sodipodi:docname="Screen-02-idcc.svg"
   width="108.2042"
   height="91.900002"
   inkscape:version="0.92.3 (unknown)"><metadata
   id="metadata92"><rdf:RDF><cc:Work
       rdf:about=""><dc:format>image/svg+xml</dc:format><dc:type
         rdf:resource="http://purl.org/dc/dcmitype/StillImage" /><dc:title></dc:title></cc:Work></rdf:RDF></metadata><defs
   id="defs90" /><sodipodi:namedview
   pagecolor="#ffffff"
   bordercolor="#666666"
   borderopacity="1"
   objecttolerance="10"
   gridtolerance="10"
   guidetolerance="10"
   inkscape:pageopacity="0"
   inkscape:pageshadow="2"
   inkscape:window-width="1920"
   inkscape:window-height="1017"
   id="namedview88"
   showgrid="false"
   inkscape:pagecheckerboard="true"
   fit-margin-top="0"
   fit-margin-left="0"
   fit-margin-right="0"
   fit-margin-bottom="0"
   inkscape:zoom="5.8263889"
   inkscape:cx="54.1"
   inkscape:cy="45.9"
   inkscape:window-x="1920"
   inkscape:window-y="23"
   inkscape:window-maximized="0"
   inkscape:current-layer="Layer_1" />
<style
   type="text/css"
   id="style79">
	.st0{fill:#00A64F;}
</style>
<g
   id="g85"
   transform="translate(-17.9,-26)">
	<path
   class="st0"
   d="M 122.4,26 H 21.6 c -2.1,0 -3.7,1.7 -3.7,3.7 V 96 c 0,2.1 1.7,3.7 3.7,3.7 h 100.8 c 2.1,0 3.7,-1.7 3.7,-3.7 V 29.8 c 0.1,-2.1 -1.6,-3.8 -3.7,-3.8 z m -3.1,58.9 c 0,2.3 -1.8,4.1 -4.1,4.1 H 28.8 c -2.3,0 -4.1,-1.8 -4.1,-4.1 V 37.1 c 0,-2.3 1.8,-4.1 4.1,-4.1 h 86.4 c 2.3,0 4.1,1.8 4.1,4.1 z"
   id="path81"
   inkscape:connector-curvature="0"
   style="fill:#00a64f" />
	<path
   class="st0"
   d="M 97.5,111.1 H 81.9 l -2.2,-8.8 v -0.7 h -15 v 0.7 l -2.2,8.8 H 60.9 46.5 c -1.6,0 -2.9,1.5 -2.9,3.4 v 0 c 0,1.9 1.3,3.4 2.9,3.4 h 51.1 c 1.6,0 2.9,-1.5 2.9,-3.4 v 0 c -0.1,-1.8 -1.4,-3.4 -3,-3.4 z"
   id="path83"
   inkscape:connector-curvature="0"
   style="fill:#00a64f" />
</g>
<path
   style="fill:#ffffff;stroke-width:0.1716329"
   d="M 9.8862548,62.796968 C 8.5928736,62.403539 7.5272587,61.430884 7.1165003,60.268834 6.9247667,59.726414 6.8837903,55.257749 6.8837903,34.890759 V 10.171028 L 7.3222441,9.3190417 C 7.8811487,8.2330001 8.9280845,7.4289912 10.098319,7.187116 10.740492,7.0543858 23.652039,7.0132894 54.597735,7.0454781 c 41.584228,0.043255 43.626417,0.059618 44.281288,0.3548082 0.868246,0.3913724 1.559087,1.044603 2.032407,1.9217654 l 0.37045,0.6865313 V 34.98117 59.953756 l -0.38025,0.710998 c -0.51004,0.953661 -1.617379,1.871349 -2.537736,2.103098 -0.875324,0.22041 -87.754782,0.249 -88.4776392,0.02912 z"
   id="path59"
   inkscape:connector-curvature="0" /></svg>