<?xml version="1.0" encoding="UTF-8" standalone="no"?>
<!-- Generator: Adobe Illustrator 22.0.1, SVG Export Plug-In . SVG Version: 6.00 Build 0)  -->

<svg
   xmlns:dc="http://purl.org/dc/elements/1.1/"
   xmlns:cc="http://creativecommons.org/ns#"
   xmlns:rdf="http://www.w3.org/1999/02/22-rdf-syntax-ns#"
   xmlns:svg="http://www.w3.org/2000/svg"
   xmlns="http://www.w3.org/2000/svg"
   xmlns:sodipodi="http://sodipodi.sourceforge.net/DTD/sodipodi-0.dtd"
   xmlns:inkscape="http://www.inkscape.org/namespaces/inkscape"
   version="1.1"
   id="Layer_1"
   x="0px"
   y="0px"
   viewBox="0 0 170.34134 220.49457"
   xml:space="preserve"
   sodipodi:docname="tower-02-idcc.svg"
   width="170.34134"
   height="220.49457"
   inkscape:version="0.92.3 (unknown)"><metadata
   id="metadata4972"><rdf:RDF><cc:Work
       rdf:about=""><dc:format>image/svg+xml</dc:format><dc:type
         rdf:resource="http://purl.org/dc/dcmitype/StillImage" /><dc:title /></cc:Work></rdf:RDF></metadata><defs
   id="defs4970" /><sodipodi:namedview
   pagecolor="#ffffff"
   bordercolor="#666666"
   borderopacity="1"
   objecttolerance="10"
   gridtolerance="10"
   guidetolerance="10"
   inkscape:pageopacity="0"
   inkscape:pageshadow="2"
   inkscape:window-width="1846"
   inkscape:window-height="1053"
   id="namedview4968"
   showgrid="false"
   inkscape:pagecheckerboard="true"
   inkscape:zoom="2.8709845"
   inkscape:cx="173.09882"
   inkscape:cy="84.522731"
   inkscape:window-x="74"
   inkscape:window-y="23"
   inkscape:window-maximized="0"
   inkscape:current-layer="layer3"
   inkscape:snap-smooth-nodes="true"
   inkscape:object-paths="true"
   inkscape:snap-page="true" />
<style
   type="text/css"
   id="style4949">
	.st0{fill:#130C0E;}
</style>
<g
   inkscape:groupmode="layer"
   id="layer3"
   inkscape:label="backdrop"
   transform="translate(-23.556781,4.394573)"
   style="display:inline"><path
     style="fill:#ffffff;fill-opacity:1;stroke-width:0.04278485;stroke-miterlimit:4;stroke-dasharray:none"
     d=""
     id="path5076"
     inkscape:connector-curvature="0"
     transform="translate(31)" /><path
     style="fill:#ffffff;fill-opacity:1;stroke-width:0.04278485;stroke-miterlimit:4;stroke-dasharray:none"
     d="m 68.067842,122.32249 c 0.192773,-0.50287 1.272875,-3.30461 2.400227,-6.22608 l 2.049731,-5.31177 1.452969,-0.10875 c 0.799134,-0.0598 3.013711,-0.13819 4.921284,-0.17416 l 3.468314,-0.0654 2.313405,6.01068 c 1.272372,3.30587 2.369043,6.18598 2.437047,6.40024 l 0.123643,0.38956 h -9.758559 -9.758558 z"
     id="path5084"
     inkscape:connector-curvature="0"
     transform="translate(31)" /><path
     style="fill:#ffffff;fill-opacity:1;stroke-width:0.04278485;stroke-miterlimit:4;stroke-dasharray:none"
     d="m 68.663344,149.69821 c -4.693512,-3.24398 -8.58969,-5.92062 -8.658173,-5.94809 -0.06848,-0.0275 0.480108,-1.63709 1.219094,-3.57693 l 1.343609,-3.52698 14.951727,0.0439 14.951725,0.0439 1.31016,3.35972 c 0.720589,1.84785 1.280754,3.38629 1.24481,3.41877 -0.404057,0.36509 -17.566478,12.11302 -17.677786,12.1007 -0.08333,-0.009 -3.991654,-2.67093 -8.685166,-5.91491 z"
     id="path5086"
     inkscape:connector-curvature="0"
     transform="translate(31)" /><path
     style="fill:#ffffff;fill-opacity:1;stroke-width:0.04278485;stroke-miterlimit:4;stroke-dasharray:none"
     d="m 47.549664,175.8479 c 0.141198,-0.53995 7.142263,-18.89984 7.260596,-19.0405 0.09372,-0.1114 10.418113,6.83272 10.509867,7.06887 0.03925,0.10102 -17.551023,12.30406 -17.735898,12.30406 -0.06682,0 -0.08238,-0.1496 -0.03457,-0.33243 z"
     id="path5088"
     inkscape:connector-curvature="0"
     transform="translate(31)" /><path
     style="fill:#ffffff;fill-opacity:1;stroke-width:0.04278485;stroke-miterlimit:4;stroke-dasharray:none"
     d="m 98.487794,170.27237 c -4.956822,-3.42351 -9.052012,-6.26417 -9.100422,-6.31258 -0.09297,-0.093 10.15535,-7.22742 10.513089,-7.31878 0.129949,-0.0332 1.520679,3.36101 3.688799,9.00286 4.38692,11.41558 4.19074,10.88767 4.03911,10.86891 -0.0705,-0.009 -4.18375,-2.8169 -9.140576,-6.24041 z"
     id="path5090"
     inkscape:connector-curvature="0"
     transform="translate(31)" /><path
     style="fill:#ffffff;fill-opacity:1;stroke-width:0.04278485;stroke-miterlimit:4;stroke-dasharray:none"
     d="m 30.000648,215.61204 c 0.92846,-0.33109 2.276608,-1.38369 2.91667,-2.27726 0.298321,-0.41647 1.656559,-3.67402 3.194469,-7.6615 1.471517,-3.81533 2.73718,-6.95752 2.812586,-6.98266 0.07541,-0.0251 8.742546,-5.99488 19.260311,-13.2661 l 19.123209,-13.2204 3.427681,2.3713 c 21.194016,14.66224 35.063316,24.22524 35.203906,24.27341 0.0946,0.0324 1.31689,3.07615 2.71629,6.76391 1.39941,3.68776 2.72717,7.0185 2.9506,7.40164 0.54809,0.93989 1.37443,1.70532 2.52575,2.33959 l 0.95786,0.52768 -47.892978,-0.0106 c -41.691786,-0.009 -47.80278,-0.0428 -47.196354,-0.25902 z"
     id="path5092"
     inkscape:connector-curvature="0"
     transform="translate(31)" /><path
     style="fill:#ffffff;fill-opacity:1;stroke-width:0.0855697;stroke-miterlimit:4;stroke-dasharray:none"
     d="m 12.737139,215.07246 c 1.426268,-3.66591 35.016949,-99.49699 35.016949,-99.73296 0.988792,-4.77345 0,0 -24.404397,-6.51477 l -8.619183,-6.60815 11.254044,0.438 1.741563,-0.18738 c 2.059931,-0.22164 2.930836,-0.65593 4.098747,-2.04391 1.201206,-1.427551 1.454085,-3.156213 0.793912,-5.427124 C 32.032403,92.97912 31.380985,92.075311 26.917393,87.085814 13.768203,72.387364 9.720309,52.916709 15.924904,34.211156 18.358443,26.874545 21.88613,21.006028 27.545376,14.879808 29.796084,12.443382 31.456075,10.287454 32.104585,8.9584946 33.714229,5.6599331 33.382735,2.893362 31.169227,1.1522163 l -12.265122,-4.7912337 58.662074,0.123147 58.761611,-0.1231471 -13.98155,5.2755008 c -1.72732,1.9673157 -1.85432,4.6485437 -0.35901,7.5795958 0.37457,0.7342084 2.02111,2.7791279 3.65899,4.5442649 8.27218,8.914914 12.66154,17.530691 14.58888,28.636158 0.64821,3.735039 0.73616,12.747042 0.16147,16.544847 -1.69507,11.201757 -6.32699,20.545284 -14.51266,29.275031 -3.94084,4.202775 -4.76607,5.680083 -4.7913,8.577229 -0.0143,1.648375 0.14889,2.374997 0.69942,3.113291 1.4051,1.88431 2.57072,1.66583 4.90589,2.39937 9.57496,1.87505 -0.3655,2.56766 7.66149,3.93994 -30.44758,6.19651 -32.10141,1.24717 -30.44758,6.19651 -0.0695,0.0695 6.69159,17.95684 17.8844,48.02786 11.19281,30.07102 20.35057,54.79537 20.35057,54.94301 0,0.14763 -2.59738,0.26842 -5.77196,0.26842 h -5.77196 l 1.24154,-1.17092 c 1.45362,-1.37094 2.29119,-3.177 2.29119,-4.94053 0,-0.82151 -7.26045,-20.29653 -20.9431,-56.17659 C 95.202453,106.21858 91.347974,95.776801 85.856349,79.340286 c -3.516184,-10.524 -6.35675,-19.164653 -6.312364,-19.201455 0.04439,-0.0368 0.707666,-0.385927 1.473954,-0.775832 3.105816,-1.580308 5.035234,-4.744902 5.035234,-8.258683 0,-8.254684 -9.848412,-12.287307 -15.705003,-6.430721 -4.476071,4.476071 -3.176206,11.940542 2.56612,14.735935 l 1.542537,0.750913 -5.460907,17.938098 c -4.924917,16.177479 -6.162527,19.767091 -12.609407,36.572819 -31.159075,81.2255 -35.627279,93.14632 -35.583634,94.93431 0.05176,2.12054 0.720596,3.51438 2.389499,4.9797 l 1.249007,1.09664 h -5.970699 c -5.544516,0 -5.953772,-0.0435 -5.733547,-0.60955 z M 44.972893,88.112528 c 1.999432,-1.013451 2.93913,-2.618451 2.90525,-4.962152 -0.03473,-2.401929 -0.998348,-4.406666 -3.603671,-7.497104 -6.294685,-7.466753 -9.008448,-14.262965 -9.315736,-23.329862 -0.128517,-3.792033 -0.02614,-5.342721 0.528897,-8.011189 1.340194,-6.443288 3.97336,-11.778388 8.42366,-17.067316 3.122693,-3.711143 3.893534,-5.183701 4.097084,-7.826789 0.137977,-1.791641 0.04147,-2.276421 -0.657008,-3.300382 -1.186216,-1.738971 -2.875126,-2.611716 -4.994823,-2.581076 -2.543435,0.03677 -4.562317,1.089039 -7.099723,3.700491 -6.449462,6.637669 -10.914044,15.302428 -12.806688,24.854928 -0.846898,4.274439 -0.850531,14.080786 -0.0068,18.336532 1.872442,9.444461 6.400791,18.260256 12.584696,24.499899 3.896183,3.9313 6.699693,4.828894 9.944855,3.18402 z m 69.508087,0.209241 c 3.43437,-1.149361 9.73659,-8.707689 13.05118,-15.652432 3.35134,-7.021738 4.65669,-13.088625 4.63994,-21.565021 -0.0131,-6.618165 -0.6423,-10.508433 -2.60211,-16.088004 -3.06287,-8.719994 -10.06237,-18.57278 -14.68495,-20.671173 -3.17314,-1.440422 -6.75469,-0.64438 -8.26801,1.837658 -1.63825,2.686944 -0.57459,6.323 3.13765,10.725912 6.2865,7.456097 8.93451,13.950376 9.29758,22.802357 0.39861,9.718625 -2.49304,18.003807 -8.83066,25.301704 -2.93793,3.383077 -4.11355,5.776656 -4.11355,8.375263 0,2.413012 0.73671,3.59041 2.95617,4.724495 1.82547,0.93277 3.10689,0.982269 5.41676,0.209241 z M 100.27497,74.192222 c 3.65532,-1.704512 8.21397,-9.308179 9.66546,-16.121654 0.926,-4.346736 0.79105,-10.301557 -0.33152,-14.629128 -1.72029,-6.631771 -5.87226,-13.303195 -9.4132,-15.12522 -3.38546,-1.742021 -7.388456,-0.885171 -8.691312,1.860394 -1.202926,2.534975 -0.192328,6.75687 2.446136,10.219038 2.711617,3.558162 4.086619,9.231352 3.334104,13.75633 -0.409208,2.460612 -0.781739,3.318739 -4.552174,10.486016 -1.180205,2.243464 -1.439304,3.080469 -1.439304,4.649579 0,3.175709 1.171103,4.87025 3.873103,5.604224 1.513032,0.410999 3.231829,0.17563 5.108707,-0.699579 z m -39.978087,-0.0122 c 1.978137,-1.346309 2.604901,-2.496409 2.573797,-4.722865 -0.03156,-2.259796 -0.853272,-4.367826 -2.97119,-7.622451 -2.280298,-3.504154 -3.206702,-6.609217 -3.201442,-10.730393 0.0055,-4.326171 0.769778,-6.770426 3.445786,-11.020341 2.23523,-3.549898 2.936007,-5.365481 2.936007,-7.606664 0,-5.486505 -7.139042,-7.126271 -11.600742,-2.664572 -3.003541,3.003543 -5.882475,8.353475 -7.240325,13.454719 -1.119607,4.206201 -1.133501,11.065354 -0.0314,15.499735 0.96341,3.876332 3.638334,9.421653 5.872067,12.173235 3.031771,3.734636 7.437567,5.131561 10.217439,3.239597 z"
     id="path5096"
     inkscape:connector-curvature="0"
     transform="translate(31)"
     sodipodi:nodetypes="ccccccssssssscccccsssscccccsssccssscsssscsscccscccsssssccsscscccscscscscsccsccsssscscsccscsssssscc" /><path
     class="st0"
     d="m 167.32779,-3.6390175 c -6.25297,1.6600252 -12.13639,-1.0756739 -10.34717,1.0436926 10.6,10.2 28.0592,36.3822369 27.9592,51.0822369 0,14.6 -19.93647,47.406307 -30.43647,57.506298 8.11508,0.54772 8.81022,2.5728 14.79513,-2.65649 13.5,-12.499995 24.59964,-34.58362 24.59964,-53.08362 0,-18.7 -12.97033,-41.1921172 -26.57033,-53.8921175 z"
     id="path4959-6"
     inkscape:connector-curvature="0"
     style="fill:#ffffff"
     sodipodi:nodetypes="cccccsc" /><path
     class="st0"
     d="m 61.669697,105.61523 c -10.4,-10.1 -30.631283,-41.94374 -30.631283,-56.54374 0,-14.8 20.062311,-42.5764334 30.562311,-52.6764334 -5.050706,5.5427148 -5.309378,0.067925 -11.69662,-0.034074 -2.2,0 1.9,-1.7 0,0 -13.7,12.7000004 -26.347324,35.2106894 -26.347324,53.9106894 0,18.5 8.773727,39.344905 22.173727,51.944908 5.340259,4.04347 17.342909,5.30483 15.939189,3.39865 z"
     id="path4953-5"
     inkscape:connector-curvature="0"
     style="fill:#ffffff"
     sodipodi:nodetypes="cscccscc" /></g><g
   id="g4965"
   transform="translate(-23.556781,4.394573)">
	<path
   class="st0"
   d="M 122.8,97.7 110.2,59.9 c 3.9,-1 6.8,-4.6 6.8,-8.8 0,-5 -4.1,-9.1 -9.1,-9.1 -5,0 -9.1,4.1 -9.1,9.1 0,4.2 2.9,7.8 6.9,8.8 l -10.6,35 -12.4,32.4 c 0,0.1 -0.1,0.2 -0.1,0.3 L 52.3,207 c -1.3,3.4 0.4,7.3 3.8,8.6 0.8,0.3 1.6,0.4 2.4,0.4 2.7,0 5.2,-1.6 6.2,-4.3 l 5,-13 c 0.2,-0.1 0.5,-0.2 0.7,-0.4 l 37.9,-26.2 37.9,26.2 c 0.3,0.2 0.7,0.4 1,0.6 l 4.9,12.9 c 1,2.7 3.5,4.3 6.2,4.3 0.8,0 1.6,-0.1 2.4,-0.4 3.4,-1.3 5.2,-5.2 3.8,-8.6 z m -29.3,38.9 h 30 l 2.7,6.9 -17.8,12.3 -17.6,-12.1 z m 19.9,-26.3 5,13 H 98.6 l 4.9,-12.7 z m -35.3,66.4 7.7,-20.2 10.8,7.4 z m 42,-12.8 11,-7.6 7.9,20.6 z"
   id="path4951"
   inkscape:connector-curvature="0"
   style="fill:#130c0e" />
	<path
   class="st0"
   d="m 58.3,102.4 c 1.9,0 3.5,-0.7 4.5,-2.1 2.1,-2.7 1,-7.1 -2.7,-10.6 C 49.7,79.6 43.9,66 43.9,51.4 43.9,36.6 49.7,22.9 60.2,12.8 63.9,9.2 65,4.8 63,2.1 62,0.8 60.4,0 58.5,0 56.3,0 54,1 52.1,2.7 38.4,15.4 31,32.7 31,51.4 c 0,18.5 7.5,35.7 20.9,48.3 1.9,1.7 4.2,2.7 6.4,2.7 z"
   id="path4953"
   inkscape:connector-curvature="0"
   style="fill:#130c0e" />
	<path
   class="st0"
   d="m 66.9,85.8 c 1.8,1.8 4.1,2.9 6.4,2.9 v 0 c 1.9,0 3.5,-0.8 4.5,-2.1 2,-2.7 1,-6.9 -2.5,-10.7 -6.2,-6.7 -9.6,-15.4 -9.7,-24.6 0,-9.3 3.5,-18.1 9.8,-24.9 3.6,-3.8 4.6,-8 2.6,-10.7 -1,-1.3 -2.7,-2.1 -4.5,-2.1 -2.2,0 -4.6,1 -6.4,2.9 -9.3,9.3 -14.3,21.6 -14.3,34.8 0,13.1 5,25.3 14.1,34.5 z"
   id="path4955"
   inkscape:connector-curvature="0"
   style="fill:#130c0e" />
	<path
   class="st0"
   d="m 81.9,71.7 c 1.7,2 4.1,3.2 6.4,3.2 1.8,0 3.5,-0.8 4.5,-2.1 1.3,-1.7 2,-5 -2,-10.8 -2.2,-3.2 -3.4,-6.9 -3.4,-10.8 0,-4 1.2,-7.8 3.5,-11.1 4.1,-5.7 3.4,-9 2.1,-10.7 -1,-1.3 -2.6,-2.1 -4.5,-2.1 -2.3,0 -4.7,1.1 -6.4,3.1 -5,5.8 -7.7,13.2 -7.7,20.8 0.1,7.6 2.7,14.8 7.5,20.5 z"
   id="path4957"
   inkscape:connector-curvature="0"
   style="fill:#130c0e" />
	<path
   class="st0"
   d="M 164,2.7 C 162.1,1 159.8,0 157.6,0 c -1.9,0 -3.5,0.7 -4.5,2.1 -2.1,2.7 -0.9,7.1 2.7,10.6 10.6,10.2 16.4,23.9 16.3,38.6 0,14.6 -5.8,28.2 -16.3,38.3 -3.7,3.5 -4.8,7.9 -2.7,10.6 1,1.3 2.6,2.1 4.5,2.1 2.2,0 4.5,-1 6.4,-2.7 13.5,-12.5 21,-29.7 21,-48.2 0,-18.7 -7.4,-36 -21,-48.7 z"
   id="path4959"
   inkscape:connector-curvature="0"
   style="fill:#130c0e" />
	<path
   class="st0"
   d="m 150.4,51.3 c 0,9.2 -3.4,17.9 -9.7,24.6 -3.6,3.8 -4.5,8 -2.5,10.7 1,1.3 2.6,2.1 4.5,2.1 2.3,0 4.6,-1.1 6.4,-2.9 9.1,-9.2 14.1,-21.4 14.1,-34.4 0,-13.2 -5.1,-25.5 -14.3,-34.8 -1.8,-1.8 -4.1,-2.9 -6.4,-2.9 -1.9,0 -3.5,0.8 -4.5,2.1 -2,2.7 -1,6.9 2.6,10.7 6.3,6.7 9.8,15.5 9.8,24.8 z"
   id="path4961"
   inkscape:connector-curvature="0"
   style="fill:#130c0e" />
	<path
   class="st0"
   d="m 128.7,51.3 c 0,3.9 -1.2,7.6 -3.4,10.8 -4,5.8 -3.3,9 -2,10.8 1,1.3 2.6,2.1 4.4,2.1 2.3,0 4.7,-1.2 6.4,-3.2 4.8,-5.7 7.4,-12.9 7.4,-20.4 0,-7.6 -2.7,-15 -7.6,-20.8 -1.7,-2 -4,-3.1 -6.4,-3.1 -1.9,0 -3.5,0.8 -4.5,2.1 -1.3,1.7 -2,5 2.1,10.7 2.3,3.1 3.6,7 3.6,11 z"
   id="path4963"
   inkscape:connector-curvature="0"
   style="fill:#130c0e" />
</g>
</svg>