<svg xmlns="http://www.w3.org/2000/svg" height="591pt" version="1.1" viewBox="0 0 591 591.64292" width="591pt">
<g id="surface1">
<path d="M 520.835938 306.226562 L 525.9375 306.226562 C 562.570312 305.503906 591.675781 275.222656 590.953125 238.589844 C 590.257812 203.636719 562.570312 175.222656 527.644531 173.628906 C 544.65625 96.625 496.035156 20.402344 419.03125 3.382812 C 350.105469 -11.847656 280.390625 25.566406 254.984375 91.417969 C 220.792969 46.605469 156.75 38 111.9375 72.191406 C 80.878906 95.890625 66.070312 135.246094 73.804688 173.539062 L 66.660156 173.539062 C 30.023438 173.539062 0.320312 203.238281 0.320312 239.878906 C 0.320312 276.519531 30.023438 306.21875 66.660156 306.21875 L 71.765625 306.21875 " style=" stroke:none;fill-rule:nonzero;fill:rgb(85.490196%,86.666667%,87.45098%);fill-opacity:1;" />
<path d="M 102.382812 224.578125 L 490.21875 224.578125 L 490.21875 306.226562 L 102.382812 306.226562 Z M 102.382812 224.578125 " style=" stroke:none;fill-rule:nonzero;fill:rgb(26.27451%,59.607843%,81.960784%);fill-opacity:1;" />
<path d="M 102.382812 347.050781 L 490.21875 347.050781 L 490.21875 428.703125 L 102.382812 428.703125 Z M 102.382812 347.050781 " style=" stroke:none;fill-rule:nonzero;fill:rgb(26.27451%,59.607843%,81.960784%);fill-opacity:1;" />
<path d="M 102.382812 469.527344 L 490.21875 469.527344 L 490.21875 551.175781 L 102.382812 551.175781 Z M 102.382812 469.527344 " style=" stroke:none;fill-rule:nonzero;fill:rgb(26.27451%,59.607843%,81.960784%);fill-opacity:1;" />
<path d="M 143.207031 306.226562 L 184.03125 306.226562 L 184.03125 347.050781 L 143.207031 347.050781 Z M 143.207031 306.226562 " style=" stroke:none;fill-rule:nonzero;fill:rgb(7.058824%,37.647059%,60%);fill-opacity:1;" />
<path d="M 408.566406 306.226562 L 449.394531 306.226562 L 449.394531 347.050781 L 408.566406 347.050781 Z M 408.566406 306.226562 " style=" stroke:none;fill-rule:nonzero;fill:rgb(7.058824%,37.647059%,60%);fill-opacity:1;" />
<path d="M 143.207031 428.703125 L 184.03125 428.703125 L 184.03125 469.527344 L 143.207031 469.527344 Z M 143.207031 428.703125 " style=" stroke:none;fill-rule:nonzero;fill:rgb(7.058824%,37.647059%,60%);fill-opacity:1;" />
<path d="M 408.566406 428.703125 L 449.394531 428.703125 L 449.394531 469.527344 L 408.566406 469.527344 Z M 408.566406 428.703125 " style=" stroke:none;fill-rule:nonzero;fill:rgb(7.058824%,37.647059%,60%);fill-opacity:1;" />
<path d="M 143.207031 551.175781 L 184.03125 551.175781 L 184.03125 592 L 143.207031 592 Z M 143.207031 551.175781 " style=" stroke:none;fill-rule:nonzero;fill:rgb(7.058824%,37.647059%,60%);fill-opacity:1;" />
<path d="M 408.566406 551.175781 L 449.394531 551.175781 L 449.394531 592 L 408.566406 592 Z M 408.566406 551.175781 " style=" stroke:none;fill-rule:nonzero;fill:rgb(7.058824%,37.647059%,60%);fill-opacity:1;" />
<path d="M 439.1875 500.144531 L 459.597656 500.144531 L 459.597656 520.558594 L 439.1875 520.558594 Z M 439.1875 500.144531 " style=" stroke:none;fill-rule:nonzero;fill:rgb(53.333333%,70.196078%,21.568627%);fill-opacity:1;" />
<path d="M 357.539062 500.144531 L 377.949219 500.144531 L 377.949219 520.558594 L 357.539062 520.558594 Z M 357.539062 500.144531 " style=" stroke:none;fill-rule:nonzero;fill:rgb(53.333333%,70.196078%,21.568627%);fill-opacity:1;" />
<path d="M 439.1875 255.195312 L 459.597656 255.195312 L 459.597656 275.609375 L 439.1875 275.609375 Z M 439.1875 255.195312 " style=" stroke:none;fill-rule:nonzero;fill:rgb(53.333333%,70.196078%,21.568627%);fill-opacity:1;" />
<path d="M 398.363281 255.195312 L 418.773438 255.195312 L 418.773438 275.609375 L 398.363281 275.609375 Z M 398.363281 255.195312 " style=" stroke:none;fill-rule:nonzero;fill:rgb(53.333333%,70.196078%,21.568627%);fill-opacity:1;" />
<path d="M 357.539062 255.195312 L 377.949219 255.195312 L 377.949219 275.609375 L 357.539062 275.609375 Z M 357.539062 255.195312 " style=" stroke:none;fill-rule:nonzero;fill:rgb(53.333333%,70.196078%,21.568627%);fill-opacity:1;" />
<path d="M 133 255.195312 L 153.414062 255.195312 L 153.414062 275.609375 L 133 275.609375 Z M 133 255.195312 " style=" stroke:none;fill-rule:nonzero;fill:rgb(53.333333%,70.196078%,21.568627%);fill-opacity:1;" />
<path d="M 439.1875 377.671875 L 459.597656 377.671875 L 459.597656 398.082031 L 439.1875 398.082031 Z M 439.1875 377.671875 " style=" stroke:none;fill-rule:nonzero;fill:rgb(53.333333%,70.196078%,21.568627%);fill-opacity:1;" />
<path d="M 398.363281 377.671875 L 418.773438 377.671875 L 418.773438 398.082031 L 398.363281 398.082031 Z M 398.363281 377.671875 " style=" stroke:none;fill-rule:nonzero;fill:rgb(53.333333%,70.196078%,21.568627%);fill-opacity:1;" />
<path d="M 357.539062 377.671875 L 377.949219 377.671875 L 377.949219 398.082031 L 357.539062 398.082031 Z M 357.539062 377.671875 " style=" stroke:none;fill-rule:nonzero;fill:rgb(53.333333%,70.196078%,21.568627%);fill-opacity:1;" />
<path d="M 133 377.671875 L 153.414062 377.671875 L 153.414062 398.082031 L 133 398.082031 Z M 133 377.671875 " style=" stroke:none;fill-rule:nonzero;fill:rgb(53.333333%,70.196078%,21.568627%);fill-opacity:1;" />
<path d="M 398.363281 500.144531 L 418.773438 500.144531 L 418.773438 520.558594 L 398.363281 520.558594 Z M 398.363281 500.144531 " style=" stroke:none;fill-rule:nonzero;fill:rgb(53.333333%,70.196078%,21.568627%);fill-opacity:1;" />
<path d="M 133 500.144531 L 153.414062 500.144531 L 153.414062 520.558594 L 133 520.558594 Z M 133 500.144531 " style=" stroke:none;fill-rule:nonzero;fill:rgb(53.333333%,70.196078%,21.568627%);fill-opacity:1;" />
</g>
</svg>