<?xml version="1.0" encoding="UTF-8" standalone="no"?>
<!-- Created with Inkscape (http://www.inkscape.org/) -->

<svg
   xmlns:dc="http://purl.org/dc/elements/1.1/"
   xmlns:cc="http://creativecommons.org/ns#"
   xmlns:rdf="http://www.w3.org/1999/02/22-rdf-syntax-ns#"
   xmlns:svg="http://www.w3.org/2000/svg"
   xmlns="http://www.w3.org/2000/svg"
   xmlns:sodipodi="http://sodipodi.sourceforge.net/DTD/sodipodi-0.dtd"
   xmlns:inkscape="http://www.inkscape.org/namespaces/inkscape"
   width="33.241714mm"
   height="25.848242mm"
   viewBox="0 0 33.241714 25.848242"
   version="1.1"
   id="svg1406"
   inkscape:version="0.92.3 (unknown)"
   sodipodi:docname="fog-idcc.svg">
  <defs
     id="defs1400">
    <clipPath
       clipPathUnits="userSpaceOnUse"
       id="clipPath823">
      <rect
         style="fill:#ff00ff;fill-opacity:1;stroke-width:1.27479947"
         id="rect825"
         width="125.638"
         height="97.69416"
         x="7.1054274e-15"
         y="-0.0004196167" />
    </clipPath>
  </defs>
  <sodipodi:namedview
     id="base"
     pagecolor="#ffffff"
     bordercolor="#666666"
     borderopacity="1.0"
     inkscape:pageopacity="0.0"
     inkscape:pageshadow="2"
     inkscape:zoom="1.4"
     inkscape:cx="-95.418342"
     inkscape:cy="17.068464"
     inkscape:document-units="mm"
     inkscape:current-layer="layer2"
     showgrid="false"
     inkscape:pagecheckerboard="true"
     inkscape:window-width="1920"
     inkscape:window-height="1017"
     inkscape:window-x="0"
     inkscape:window-y="23"
     inkscape:window-maximized="0" />
  <metadata
     id="metadata1403">
    <rdf:RDF>
      <cc:Work
         rdf:about="">
        <dc:format>image/svg+xml</dc:format>
        <dc:type
           rdf:resource="http://purl.org/dc/dcmitype/StillImage" />
        <dc:title />
      </cc:Work>
    </rdf:RDF>
  </metadata>
  <g
     inkscape:groupmode="layer"
     id="layer2"
     inkscape:label="background"
     transform="translate(-5.0292969e-6,1.0639648e-4)">
    <rect
       transform="translate(-130.0339,-147.24855)"
       style="fill:#ffffff;fill-opacity:1;stroke-width:0.26458332"
       id="rect815"
       width="33.241714"
       height="25.848242"
       x="130.03391"
       y="147.24844" />
  </g>
  <g
     inkscape:label="Layer 1"
     inkscape:groupmode="layer"
     id="layer1"
     transform="translate(-130.03391,-147.24844)">
    <path
       clip-path="url(#clipPath823)"
       inkscape:connector-curvature="0"
       id="path1387"
       d="m 3.1593552,125.24237 c -0.54013,-0.22277 -1.42398,-0.89555 -1.96411,-1.49509 -0.88019996,-0.977 -0.99873996,-1.91241 -1.14289996,-9.01919 -0.0993,-4.89247 0.049,-8.63324 0.38712,-9.76763 1.05734996,-3.54748 -3.27120004,-3.31729 62.37965976,-3.31729 65.650855,0 61.322315,-0.23019 62.379665,3.31729 0.33843,1.13542 0.48647,4.88609 0.38713,9.80785 -0.16072,7.96283 -0.16197,7.97048 -1.52227,9.32951 l -1.36142,1.36015 -59.280415,0.0947 c -32.60423,0.0521 -59.7223298,-0.0875 -60.2624598,-0.31031 z M 113.96497,118.4329 c 1.68247,-1.8037 1.88507,-2.29377 1.88507,-4.55984 0,-4.45258 -2.84501,-7.40146 -7.14075,-7.40146 -4.48243,0 -7.43213,3.31686 -6.99504,7.86573 0.40456,4.21029 3.36582,6.63559 7.70872,6.31351 2.36619,-0.17548 2.8632,-0.41818 4.542,-2.21794 z M 3.5886452,96.398238 c -0.57409,-0.11477 -1.56842,-0.76647 -2.20962,-1.44821 -1.11177996,-1.18206 -1.17328996,-1.60777 -1.32667996,-9.18061 -0.0993,-4.90115 0.0489,-8.64485 0.38712,-9.77955 1.05734996,-3.54748 -3.27120004,-3.31729 62.37965976,-3.31729 65.650855,0 61.322315,-0.23019 62.379665,3.31729 0.33843,1.13542 0.48647,4.88609 0.38713,9.80785 -0.16072,7.96279 -0.16198,7.97049 -1.52225,9.32951 l -1.3614,1.36015 -59.034915,0.0598 c -32.46921,0.0329 -59.5046298,-0.0341 -60.0787098,-0.14891 z M 111.88772,91.103728 c 2.61714,-1.35338 3.96252,-3.49891 3.96049,-6.31591 -0.003,-4.45323 -2.82502,-7.36062 -7.14927,-7.36611 -3.96531,-0.005 -7.09023,3.1228 -7.08684,7.09347 0.004,5.33905 5.66877,8.97084 10.27562,6.58855 z M 3.5886452,67.427648 c -0.57409,-0.11477 -1.56842,-0.76646 -2.20962,-1.44819 -1.10785996,-1.17788 -1.17372996,-1.62101 -1.32459996,-8.91167 -0.18671,-9.02226 0.0409,-10.62077 1.73579996,-12.19157 l 1.26701,-1.17423 H 62.819125 122.58102 l 1.26701,1.17423 c 1.69565,1.57147 1.92244,3.16805 1.73581,12.21987 -0.15813,7.6696 -0.16423,7.7059 -1.52017,9.06058 l -1.3614,1.36012 -59.034915,0.0598 c -32.46921,0.0329 -59.5046298,-0.0341 -60.0787098,-0.14891 z m 108.2348048,-5.2655 c 2.63123,-1.36902 3.70588,-3.04117 3.90006,-6.06846 0.22758,-3.54772 -0.95613,-5.65611 -3.93458,-7.00817 -2.59896,-1.17979 -3.5186,-1.17979 -6.11755,0 -5.21123,2.36562 -5.50286,9.74029 -0.50566,12.78712 1.87149,1.14106 4.77815,1.26746 6.65773,0.28951 z M 0.45870524,39.615558 c 0,-0.7567 10.11141976,-27.10447 11.54821976,-30.0916996 1.00302,-2.08536 2.74473,-4.69201 3.92122,-5.8685 3.78906,-3.78906004 2.0708,-3.65477003885 46.76267,-3.65477003885 27.65009,0 40.124675,0.16569999885 41.664465,0.55341999885 3.25988,0.82085004 6.5382,4.02544004 9.04262,8.83924004 1.58675,3.0499196 11.78165,29.2019196 11.78165,30.2223096 0,0.10602 -0.4274,-0.036 -0.94977,-0.31553 -1.32252,-0.70779 -121.4987848,-0.70779 -122.8213048,0 -0.52237996,0.27956 -0.94976996,0.42155 -0.94976996,0.31553 z"
       style="fill:#01a3e1;fill-opacity:1;stroke-width:0.49102694"
       transform="matrix(0.26458333,0,0,0.26458333,130.0339,147.24855)" />
  </g>
</svg>
