<?xml version="1.0" encoding="UTF-8" standalone="no"?>
<!-- Generator: Adobe Illustrator 21.1.0, SVG Export Plug-In . SVG Version: 6.00 Build 0)  -->

<svg
   xmlns:dc="http://purl.org/dc/elements/1.1/"
   xmlns:cc="http://creativecommons.org/ns#"
   xmlns:rdf="http://www.w3.org/1999/02/22-rdf-syntax-ns#"
   xmlns:svg="http://www.w3.org/2000/svg"
   xmlns="http://www.w3.org/2000/svg"
   xmlns:xlink="http://www.w3.org/1999/xlink"
   xmlns:sodipodi="http://sodipodi.sourceforge.net/DTD/sodipodi-0.dtd"
   xmlns:inkscape="http://www.inkscape.org/namespaces/inkscape"
   version="1.1"
   id="Layer_1"
   x="0px"
   y="0px"
   viewBox="0 0 36.799999 37.950001"
   xml:space="preserve"
   sodipodi:docname="Gear-01-idcc.svg"
   width="36.799999"
   height="37.950001"
   inkscape:version="0.92.3 (unknown)"><metadata
   id="metadata3888"><rdf:RDF><cc:Work
       rdf:about=""><dc:format>image/svg+xml</dc:format><dc:type
         rdf:resource="http://purl.org/dc/dcmitype/StillImage" /><dc:title></dc:title></cc:Work></rdf:RDF></metadata><defs
   id="defs3886" /><sodipodi:namedview
   pagecolor="#ffffff"
   bordercolor="#666666"
   borderopacity="1"
   objecttolerance="10"
   gridtolerance="10"
   guidetolerance="10"
   inkscape:pageopacity="0"
   inkscape:pageshadow="2"
   inkscape:window-width="1920"
   inkscape:window-height="1017"
   id="namedview3884"
   showgrid="false"
   inkscape:pagecheckerboard="true"
   showborder="true"
   fit-margin-top="0"
   fit-margin-left="0"
   fit-margin-right="0"
   fit-margin-bottom="0"
   inkscape:zoom="1.6388889"
   inkscape:cx="18.2"
   inkscape:cy="18.975"
   inkscape:window-x="0"
   inkscape:window-y="23"
   inkscape:window-maximized="0"
   inkscape:current-layer="Layer_1" />
<style
   type="text/css"
   id="style3869">
	.st0{clip-path:url(#SVGID_2_);fill:#FFFFFF;}
</style>
<g
   id="g3881"
   transform="translate(-53.8,-53.025)">
	<g
   id="g3879">
		<defs
   id="defs3872">
			<rect
   id="SVGID_1_"
   x="53.400002"
   y="53"
   width="37.200001"
   height="38" />
		</defs>
		<clipPath
   id="SVGID_2_">
			<use
   xlink:href="#SVGID_1_"
   style="overflow:visible"
   id="use3874"
   x="0"
   y="0"
   width="100%"
   height="100%" />
		</clipPath>
		<path
   class="st0"
   d="m 72,77.4 c -3,0 -5.4,-2.4 -5.4,-5.4 0,-3 2.4,-5.4 5.4,-5.4 3,0 5.4,2.4 5.4,5.4 0,3 -2.4,5.4 -5.4,5.4 m 0,-14.1 c -4.8,0 -8.7,3.9 -8.7,8.7 0,4.8 3.9,8.7 8.7,8.7 4.8,0 8.7,-3.9 8.7,-8.7 0,-4.8 -3.9,-8.7 -8.7,-8.7 m 0,19.4 c -5.9,0 -10.7,-4.8 -10.7,-10.7 0,-5.9 4.8,-10.7 10.7,-10.7 5.9,0 10.7,4.8 10.7,10.7 0,5.9 -4.8,10.7 -10.7,10.7 M 87,70.6 90.6,68.1 90.5,67.9 C 90.4,67.3 90.2,66.7 90,66.1 89.8,65.5 89.6,65 89.4,64.4 l -0.1,-0.2 -4.4,0.1 c -0.5,-0.8 -1,-1.5 -1.6,-2.2 l 1.5,-4.2 -0.2,-0.2 C 83.7,56.9 82.7,56.2 81.7,55.6 L 81.5,55.5 78,58.2 C 77.2,57.8 76.3,57.6 75.4,57.3 L 74.2,53.1 H 74 C 72.8,53 71.6,53 70.4,53.1 H 70.2 L 69,57.3 c -0.5,0.1 -0.9,0.2 -1.3,0.4 -0.4,0.1 -0.9,0.3 -1.3,0.5 l -3.5,-2.7 -0.2,0.1 c -1,0.6 -2,1.3 -2.9,2.1 l -0.2,0.2 1.5,4.2 c -0.6,0.7 -1.2,1.5 -1.6,2.2 L 55.1,64.2 55,64.4 c -0.5,1.1 -0.9,2.3 -1.1,3.5 l -0.1,0.2 3.6,2.5 c -0.1,0.9 -0.1,1.9 0,2.8 l -3.6,2.5 0.1,0.2 c 0.1,0.6 0.3,1.2 0.5,1.8 0.2,0.6 0.4,1.1 0.6,1.7 l 0.1,0.2 4.4,-0.1 c 0.5,0.8 1,1.5 1.6,2.2 l -1.5,4.2 0.2,0.2 c 0.9,0.8 1.9,1.5 2.9,2.1 l 0.2,0.1 3.5,-2.7 c 0.8,0.4 1.7,0.7 2.6,0.9 l 1.2,4.2 h 0.2 c 1.2,0.1 2.4,0.1 3.6,0 h 0.2 l 1.2,-4.2 c 0.5,-0.1 0.9,-0.2 1.3,-0.4 0.4,-0.1 0.9,-0.3 1.3,-0.5 l 3.5,2.7 0.2,-0.1 c 1,-0.6 2,-1.3 2.9,-2.1 l 0.2,-0.2 -1.5,-4.2 c 0.6,-0.7 1.2,-1.5 1.6,-2.2 l 4.4,0.1 0.1,-0.2 c 0.5,-1.1 0.9,-2.3 1.1,-3.5 L 90.6,75.9 87,73.4 c 0,-0.9 0,-1.9 0,-2.8"
   clip-path="url(#SVGID_2_)"
   id="path3877"
   inkscape:connector-curvature="0"
   style="fill:#ffffff" />
	</g>
</g>
</svg>