<?xml version="1.0" standalone="no"?><!DOCTYPE svg PUBLIC "-//W3C//DTD SVG 1.1//EN" "http://www.w3.org/Graphics/SVG/1.1/DTD/svg11.dtd"><svg class="icon" height="512" viewBox="0 0 1024 1024" version="1.1" xmlns="http://www.w3.org/2000/svg"><path d="M701.626825 218.662115c-16.525372 0-29.978778 13.453407-29.978778 29.978778s13.453407 29.978778 29.978778 29.978779 29.978778-13.453407 29.978778-29.978779-13.453407-29.978778-29.978778-29.978778zM631.392204 218.662115c-16.525372 0-29.978778 13.453407-29.978778 29.978778s13.453407 29.978778 29.978778 29.978779 29.978778-13.453407 29.978778-29.978779-13.452383-29.978778-29.978778-29.978778zM104.3363 705.136765V311.514873h513.342578v126.413108h27.429722V311.514873h106.005313v77.254501h27.443025V220.544998c0-19.179828-15.610536-34.790364-34.790364-34.790364H111.683638c-19.179828 0-34.790364 15.610536-34.790364 34.790364v484.591767c0 19.179828 15.610536 34.777061 34.790364 34.777061h428.085822v-27.429722H111.683638c-4.053316 0.001023-7.347339-3.294023-7.347338-7.347339z m0-421.051615v-63.540152c0-4.053316 3.295046-7.347339 7.347338-7.347338h632.08089c4.053316 0 7.347339 3.295046 7.347338 7.347338v63.540152H104.3363zM561.158606 218.662115c-16.525372 0-29.978778 13.453407-29.978778 29.978778s13.453407 29.978778 29.978778 29.978779 29.978778-13.453407 29.978779-29.978779-13.453407-29.978778-29.978779-29.978778zM729.72272 550.954197c-38.542828 0-69.907163 31.365358-69.907163 69.907163s31.364335 69.89386 69.907163 69.89386 69.89386-31.352055 69.89386-69.89386-31.351032-69.907163-69.89386-69.907163z m42.465161 69.907163c0 23.415292-19.048845 42.465161-42.465161 42.465161-23.428595 0-42.47744-19.048845-42.47744-42.465161 0-23.428595 19.048845-42.47744 42.47744-42.47744 23.416316 0 42.465161 19.048845 42.465161 42.47744zM912.316362 572.029188H873.682459c-5.988388 0-10.864442-4.877077-10.864442-10.864442 0-3.5038 1.713015-6.824429 4.576226-8.863878l25.978674-26.030863c13.557784-13.571087 13.557784-35.639708 0-49.197492l-19.872606-19.859304c-13.125949-13.152555-36.044938-13.152555-49.197492 0l-23.141047 23.15435-0.627286-0.11768-2.496868 3.242857h-0.013302l-2.013867 2.026146a10.81123 10.81123 0 0 1-6.589069 2.235924c-5.988388 0-10.864442-4.877077-10.864442-10.864442v-38.633902c0-19.179828-15.610536-34.790364-34.790364-34.790364h-28.095895c-19.179828 0-34.790364 15.610536-34.790364 34.790364v35.116799l0.065492 1.608637a31.654954 31.654954 0 0 0-0.065492 1.908466c0 5.988388-4.863774 10.864442-10.851139 10.864442a10.783601 10.783601 0 0 1-8.616238-4.248767l-3.059686-3.15076-0.575098 0.104377-8.275477-8.275477 0.300852-0.300852-14.669094-14.669094c-13.113669-13.139252-36.058241-13.165858-49.197492 0l-19.859304 19.859303c-13.557784 13.557784-13.557784 35.627429 0 49.197492l14.669095 14.669095 0.287549-0.287549 8.40646 8.40646 2.588965 3.255137c2.915399 2.066055 4.576225 5.294586 4.576225 8.851599 0 5.988388-4.877077 10.864442-10.864442 10.864442h-38.633902c-19.179828 0-34.790364 15.610536-34.790364 34.790364v28.083615c0 19.179828 15.610536 34.790364 34.790364 34.790364l35.051307-0.013303 3.582595 0.013303c5.988388 0 10.864442 4.877077 10.864442 10.864442 0 3.5038-1.713015 6.811126-4.576225 8.851599l-25.978675 26.043142c-13.571087 13.557784-13.571087 35.639708 0 49.197492l19.872607 19.859304c13.571087 13.571087 35.614126 13.571087 49.185212 0l23.167653-23.167652 0.615007 0.11768 4.562922-5.294587a10.861372 10.861372 0 0 1 6.563486-2.196015c5.988388 0 10.864442 4.877077 10.864442 10.864442v38.6206c0 19.179828 15.597233 34.790364 34.777061 34.790364h28.095895c19.179828 0 34.790364-15.610536 34.790364-34.790364v-35.116799l-0.065492-1.595335c0.038886-0.64059 0.065492-1.281179 0.065492-1.908466 0-5.988388 4.877077-10.864442 10.864442-10.864442 3.399423 0 6.53688 1.543146 8.602935 4.236488l3.059686 3.15076 0.575098-0.104377 8.28878 8.28878-0.300852 0.314155 14.669094 14.669094c13.544481 13.571087 35.627429 13.544481 49.197492 0l19.859304-19.859303c13.557784-13.571087 13.557784-35.639708 0.013303-49.197492l-14.669095-14.695701-0.287549 0.300852-8.419763-8.419763-2.575662-3.242857c-2.915399-2.078335-4.588505-5.307889-4.588505-8.863879 0-5.988388 4.877077-10.864442 10.864442-10.864442H912.332734c19.179828 0 34.777061-15.610536 34.777062-34.790364v-28.083615c-0.00307-19.180851-15.613606-34.779108-34.793434-34.779108z m-38.346354 173.232437l-19.872606 19.859303a7.287987 7.287987 0 0 1-5.190209 2.143826h-0.013303a7.257288 7.257288 0 0 1-5.176906-2.143826l-6.4192-6.4192 0.196475-0.196475-19.467377-19.48068-4.915963-4.549619-0.156566 0.156566c-6.681166-5.203512-14.956643-8.105608-23.532973-8.105609-20.042475 0-36.555567 15.479553-38.176484 35.116799l-0.130983 41.811268c0 4.053316-3.295046 7.360641-7.347339 7.360642h-28.095895c-4.053316 0-7.347339-3.307326-7.347338-7.360642v-35.116799l-0.078795-1.725294c0.038886-0.588401 0.078795-1.176802 0.078795-1.778506 0-21.128203-17.179264-38.307468-38.294165-38.307468a38.015825 38.015825 0 0 0-24.684192 9.073656l-0.052189-0.052188-0.87595 0.87595c-0.941442 0.849344-1.830695 1.7519-2.693342 2.693342l-4.61511 4.615111-3.164063-0.601704 1.882883 1.882883-20.107967 20.107967a7.373944 7.373944 0 0 1-10.393721 0l-19.872606-19.859303c-2.863211-2.863211-2.863211-7.543813 0-10.407024l24.854061-24.840758 1.398859-1.503237c7.870248-7.281847 12.328793-17.310248 12.328794-27.952632 0-20.055778-15.479553-36.555567-35.116799-38.176485l-41.811268-0.130983a7.353478 7.353478 0 0 1-7.347339-7.347338v-28.083616c0-4.053316 3.295046-7.360641 7.347339-7.360641h35.116799l1.713014-0.091074c0.601704 0.052189 1.190105 0.091074 1.804089 0.091074 21.1149 0 38.294165-17.179264 38.294165-38.294165 0-8.524141-2.915399-16.774035-8.1711-23.468504l0.405229-0.405229-24.213471-24.213472-0.183172 0.183172-6.393617-6.405897c-1.385557-1.385557-2.157129-3.229554-2.15713-5.190209s0.771573-3.804652 2.15713-5.203512l19.846-19.846a7.354502 7.354502 0 0 1 10.407024 0l6.393617 6.393617-0.196475 0.196475 19.48068 19.48068 4.915963 4.549619 0.156566-0.156566a38.341237 38.341237 0 0 0 23.546276 8.105609c20.042475 0 36.542264-15.479553 38.163181-35.116799l0.130983-41.811268c0-4.053316 3.295046-7.347339 7.347339-7.347338h28.095895c4.053316 0 7.347339 3.295046 7.347338 7.347338v35.116799l0.078795 1.738597c-0.038886 0.575098-0.078795 1.176802-0.078795 1.778506 0 21.1149 17.179264 38.294165 38.307468 38.294165a37.918611 37.918611 0 0 0 24.657586-9.073656l0.065492 0.065491 1.137916-1.137916a33.510208 33.510208 0 0 0 2.15713-2.15713l4.90266-4.90266 3.347234 0.64059-2.000563-1.98726 20.029172-20.029173c1.385557-1.385557 3.229554-2.157129 5.190209-2.157129s3.817955 0.771573 5.203512 2.157129l19.859303 19.859304c1.385557 1.39886 2.157129 3.242857 2.15713 5.203512s-0.771573 3.804652-2.15713 5.190209l-24.840758 24.840758-1.425465 1.529842c-7.857968 7.281847-12.30321 17.323551-12.303211 27.93933 0 20.042475 15.479553 36.542264 35.116799 38.163181l41.811268 0.130983c4.053316 0 7.347339 3.307326 7.347339 7.360642v28.083615c0 4.053316-3.295046 7.347339-7.347339 7.347338h-35.116799l-1.738597 0.091075a20.030196 20.030196 0 0 0-1.778506-0.091075c-21.1149 0-38.294165 17.179264-38.294165 38.307468 0 8.576329 2.954285 16.865109 8.263198 23.572882l-0.379647 0.405229 24.095791 24.109094 0.196475-0.183172 6.393617 6.393617c2.863211 2.861164 2.863211 7.541767 0 10.404978zM288.119023 424.867524l-87.675851 85.909625 1.268899 1.242294-1.242294 1.228991 87.649246 85.897345 18.080798-17.715477-70.860885-69.437465 70.860885-69.423139zM333.341994 600.727811l39.025829-172.030052-24.827455-5.42557-39.000246 172.029029zM398.765029 424.867524l-18.068517 17.702174 70.861907 69.423139-70.848604 69.437465 18.055214 17.715477L486.453161 513.221828l-1.228991-1.202385 1.254573-1.215688z" /></svg>