<?xml version="1.0" encoding="UTF-8" standalone="no"?>
<!-- Generator: Adobe Illustrator 19.1.0, SVG Export Plug-In . SVG Version: 6.00 Build 0)  -->

<svg
   xmlns:dc="http://purl.org/dc/elements/1.1/"
   xmlns:cc="http://creativecommons.org/ns#"
   xmlns:rdf="http://www.w3.org/1999/02/22-rdf-syntax-ns#"
   xmlns:svg="http://www.w3.org/2000/svg"
   xmlns="http://www.w3.org/2000/svg"
   xmlns:sodipodi="http://sodipodi.sourceforge.net/DTD/sodipodi-0.dtd"
   xmlns:inkscape="http://www.inkscape.org/namespaces/inkscape"
   version="1.1"
   x="0px"
   y="0px"
   width="20"
   height="20"
   viewBox="0 0 20 20"
   enable-background="new 0 0 24 24"
   xml:space="preserve"
   id="svg40"
   sodipodi:docname="switch-blue.svg"
   inkscape:version="0.92.3 (unknown)"><metadata
   id="metadata46"><rdf:RDF><cc:Work
       rdf:about=""><dc:format>image/svg+xml</dc:format><dc:type
         rdf:resource="http://purl.org/dc/dcmitype/StillImage" /><dc:title></dc:title></cc:Work></rdf:RDF></metadata><defs
   id="defs44" /><sodipodi:namedview
   pagecolor="#ffffff"
   bordercolor="#666666"
   borderopacity="1"
   objecttolerance="10"
   gridtolerance="10"
   guidetolerance="10"
   inkscape:pageopacity="0"
   inkscape:pageshadow="2"
   inkscape:window-width="1920"
   inkscape:window-height="1017"
   id="namedview42"
   showgrid="false"
   inkscape:pagecheckerboard="true"
   fit-margin-top="0"
   fit-margin-left="0"
   fit-margin-right="0"
   fit-margin-bottom="0"
   inkscape:zoom="9.8333333"
   inkscape:cx="10"
   inkscape:cy="10"
   inkscape:window-x="1920"
   inkscape:window-y="23"
   inkscape:window-maximized="0"
   inkscape:current-layer="svg40" />
<g
   id="Bounding_Boxes"
   transform="translate(-2,-2)">
	<g
   id="ui_x5F_spec_x5F_header_copy_3"
   display="none"
   style="display:none">
	</g>
	<path
   d="M 0,0 H 24 V 24 H 0 Z"
   id="path3"
   inkscape:connector-curvature="0"
   style="fill:none" />
</g>
<g
   id="Rounded"
   display="none"
   style="display:none"
   transform="translate(-2,-2)">
	<g
   id="ui_x5F_spec_x5F_header_copy_5">
	</g>
	<path
   display="inline"
   d="M 22,12 C 22,6.48 17.52,2 12,2 6.48,2 2,6.48 2,12 c 0,5.52 4.48,10 10,10 5.52,0 10,-4.48 10,-10 z m -7,-5.5 3.15,3.15 c 0.2,0.2 0.2,0.51 0,0.71 L 15,13.5 V 11 H 11 V 9 h 4 z m -6,11 -3.15,-3.15 c -0.2,-0.2 -0.2,-0.51 0,-0.71 L 9,10.5 V 13 h 4 v 2 H 9 Z"
   id="path7"
   inkscape:connector-curvature="0"
   style="display:inline" />
</g>
<g
   id="Sharp"
   display="none"
   style="display:none"
   transform="translate(-2,-2)">
	<g
   id="ui_x5F_spec_x5F_header_copy_4">
	</g>
	<path
   display="inline"
   d="M 22,12 C 22,6.48 17.52,2 12,2 6.48,2 2,6.48 2,12 2,17.52 6.48,22 12,22 17.52,22 22,17.52 22,12 Z M 15,6.5 18.5,10 15,13.5 V 11 H 11 V 9 h 4 z M 9,17.5 5.5,14 9,10.5 V 13 h 4 v 2 H 9 Z"
   id="path11"
   inkscape:connector-curvature="0"
   style="display:inline" />
</g>
<g
   id="Outline"
   transform="translate(-2,-2)"
   style="fill:#379dd8;fill-opacity:1">
	<g
   id="ui_x5F_spec_x5F_header"
   display="none"
   style="display:none;fill:#379dd8;fill-opacity:1">
	</g>
	<g
   id="g21"
   style="fill:#379dd8;fill-opacity:1">
		<path
   d="M 12,2 C 6.48,2 2,6.48 2,12 2,17.52 6.48,22 12,22 17.52,22 22,17.52 22,12 22,6.48 17.52,2 12,2 Z m 0,18 C 7.59,20 4,16.41 4,12 4,7.59 7.59,4 12,4 c 4.41,0 8,3.59 8,8 0,4.41 -3.59,8 -8,8 z"
   id="path15"
   inkscape:connector-curvature="0"
   style="fill:#379dd8;fill-opacity:1" />
		<polygon
   points="18.5,10 15,6.5 15,9 11,9 11,11 15,11 15,13.5 "
   id="polygon17"
   style="fill:#379dd8;fill-opacity:1" />
		<polygon
   points="9,13 9,10.5 5.5,14 9,17.5 9,15 13,15 13,13 "
   id="polygon19"
   style="fill:#379dd8;fill-opacity:1" />
	</g>
</g>
<g
   id="Duotone"
   display="none"
   style="display:none"
   transform="translate(-2,-2)">
	<g
   id="ui_x5F_spec_x5F_header_copy_2">
	</g>
	<g
   display="inline"
   id="g33"
   style="display:inline">
		<path
   d="m 12,4 c -4.41,0 -8,3.59 -8,8 0,4.41 3.59,8 8,8 4.41,0 8,-3.59 8,-8 0,-4.41 -3.59,-8 -8,-8 z m 1,11 H 9 v 2.5 L 5.5,14 9,10.5 V 13 h 4 z m 2,-1.5 V 11 H 11 V 9 h 4 V 6.5 l 3.5,3.5 z"
   id="path25"
   inkscape:connector-curvature="0"
   style="opacity:0.3" />
		<path
   d="M 12,2 C 6.48,2 2,6.48 2,12 2,17.52 6.48,22 12,22 17.52,22 22,17.52 22,12 22,6.48 17.52,2 12,2 Z m 0,18 C 7.59,20 4,16.41 4,12 4,7.59 7.59,4 12,4 c 4.41,0 8,3.59 8,8 0,4.41 -3.59,8 -8,8 z"
   id="path27"
   inkscape:connector-curvature="0" />
		<polygon
   points="18.5,10 15,6.5 15,9 11,9 11,11 15,11 15,13.5 "
   id="polygon29" />
		<polygon
   points="9,13 9,10.5 5.5,14 9,17.5 9,15 13,15 13,13 "
   id="polygon31" />
	</g>
</g>
<g
   id="Material"
   display="none"
   style="display:none"
   transform="translate(-2,-2)">
	<g
   id="ui_x5F_spec_x5F_header_copy">
	</g>
	<path
   display="inline"
   d="M 22,12 C 22,6.48 17.52,2 12,2 6.48,2 2,6.48 2,12 2,17.52 6.48,22 12,22 17.52,22 22,17.52 22,12 Z M 15,6.5 18.5,10 15,13.5 V 11 H 11 V 9 h 4 z M 9,17.5 5.5,14 9,10.5 V 13 h 4 v 2 H 9 Z"
   id="path37"
   inkscape:connector-curvature="0"
   style="display:inline" />
</g>
</svg>